<ttFont>
          <CharString index="0">
            vlineto
            -106 callsubr
            return
          </CharString>
          <CharString index="1">
            26 -103 callsubr
            return
          </CharString>
          <CharString index="2">
            hlineto
            -105 callgsubr
            return
          </CharString>
          <CharString index="3">
            -26 -102 callsubr
            return
          </CharString>
          <CharString index="4">
            5 -88 callgsubr
            return
          </CharString>
          <CharString index="5">
            -5 -5 -26 vhcurveto
            return
          </CharString>
          <CharString index="6">
            5 26 hvcurveto
            return
          </CharString>
          <CharString index="7">
            vlineto
            -106 callgsubr
            return
          </CharString>
          <CharString index="8">
            vlineto
            -98 callgsubr
            return
          </CharString>
          <CharString index="9">
            -53 26 -26 return
          </CharString>
          <CharString index="10">
            -68 callgsubr
            -79 callsubr
            return
          </CharString>
          <CharString index="11">
            rmoveto
            -90 callgsubr
            97 hlineto
            return
          </CharString>
          <CharString index="12">
            hlineto
            14 11 3 6 7 hvcurveto
            return
          </CharString>
          <CharString index="13">
            158 -90 callsubr
          </CharString>
          <CharString index="14">
            109 callgsubr
            302 79 callgsubr
            return
          </CharString>
          <CharString index="15">
            -106 callgsubr
            -94 callsubr
          </CharString>
          <CharString index="16">
            -26 -5 -5 -80 callsubr
            return
          </CharString>
          <CharString index="17">
            -84 callgsubr
            vlineto
            endchar
          </CharString>
          <CharString index="18">
            hlineto
            -102 callgsubr
            return
          </CharString>
          <CharString index="19">
            hlineto
            -104 callgsubr
            return
          </CharString>
          <CharString index="20">
            -6 callsubr
            86 -105 callsubr
            132 -69 -121 -86 callgsubr
            return
          </CharString>
          <CharString index="21">
            vlineto
            -87 callgsubr
            return
          </CharString>
          <CharString index="22">
            rmoveto
            -50 -1 -25 -26 -52 vvcurveto
            -93 callgsubr
            144 hlineto
            return
          </CharString>
          <CharString index="23">
            -68 callsubr
            -69 -295 hlineto
            50 callgsubr
            return
          </CharString>
          <CharString index="24">
            rmoveto
            92 callgsubr
            return
          </CharString>
          <CharString index="25">
            -70 callgsubr
            -26 -53 hvcurveto
            return
          </CharString>
          <CharString index="26">
            26 53 hvcurveto
            return
          </CharString>
          <CharString index="27">
            -26 vhcurveto
            -29 -103 callgsubr
            return
          </CharString>
          <CharString index="28">
            -327 -93 callsubr
            return
          </CharString>
          <CharString index="29">
            10 12 2 20 28 vvcurveto
            133 vlineto
            13 -3 8 11 callsubr
            return
          </CharString>
          <CharString index="30">
            -103 callgsubr
            302 -107 callsubr
            return
          </CharString>
          <CharString index="31">
            -29 -15 -14 -23 -2 hvcurveto
            -2 hlineto
            23 -2 -16 14 -29 hhcurveto
            return
          </CharString>
          <CharString index="32">
            -51 callsubr
            40 callsubr
            0 15 -39 36 -68 vhcurveto
            78 -147 rlineto
            -3 -5 -7 -1 -10 hhcurveto
            return
          </CharString>
          <CharString index="33">
            32 -70 callsubr
            142 -50 callsubr
            return
          </CharString>
          <CharString index="34">
            -34 -103 callgsubr
            return
          </CharString>
          <CharString index="35">
            -107 callsubr
            34 59 return
          </CharString>
          <CharString index="36">
            -66 callsubr
            -77 return
          </CharString>
          <CharString index="37">
            vlineto
            -105 callgsubr
            return
          </CharString>
          <CharString index="38">
            -62 callgsubr
            -541 0 callgsubr
            return
          </CharString>
          <CharString index="39">
            -104 callgsubr
            -95 69 84 -52 callsubr
            47 return
          </CharString>
          <CharString index="40">
            -99 callsubr
            -33 hlineto
            -53 -23 -82 callgsubr
            -56 52 45 -107 callsubr
            5 -89 callsubr
            return
          </CharString>
          <CharString index="41">
            -102 callgsubr
            -157 -99 callgsubr
            return
          </CharString>
          <CharString index="42">
            89 callgsubr
            -328 -22 callsubr
            return
          </CharString>
          <CharString index="43">
            -89 callsubr
            -17 callsubr
            return
          </CharString>
          <CharString index="44">
            -13 callgsubr
            -126 -99 callgsubr
            return
          </CharString>
          <CharString index="45">
            rmoveto
            280 callgsubr
            return
          </CharString>
          <CharString index="46">
            -17 callgsubr
            -30 callsubr
          </CharString>
          <CharString index="47">
            -75 -59 75 -563 69 16 callgsubr
            59 -75 return
          </CharString>
          <CharString index="48">
            -104 callsubr
            -73 callsubr
            return
          </CharString>
          <CharString index="49">
            -19 callsubr
            75 -69 -86 -28 callsubr
            return
          </CharString>
          <CharString index="50">
            -107 callsubr
            68 59 1 callgsubr
            return
          </CharString>
          <CharString index="51">
            47 -55 callsubr
            return
          </CharString>
          <CharString index="52">
            -70 callsubr
            176 -67 callsubr
            -154 -99 callgsubr
            return
          </CharString>
          <CharString index="53">
            vlineto
            -18 callsubr
            return
          </CharString>
          <CharString index="54">
            -14 -11 -3 -6 -7 hvcurveto
            return
          </CharString>
          <CharString index="55">
            -107 callsubr
            44 -89 callsubr
            -175 74 callsubr
            return
          </CharString>
          <CharString index="56">
            rmoveto
            -107 callgsubr
            return
          </CharString>
          <CharString index="57">
            vlineto
            13 -3 9 11 callsubr
            return
          </CharString>
          <CharString index="58">
            -43 callgsubr
            34 426 rmoveto
            -33 vlineto
            -44 callsubr
            return
          </CharString>
          <CharString index="59">
            -249 -100 callsubr
            return
          </CharString>
          <CharString index="60">
            -1 -6 0 -7 -7 vvcurveto
            return
          </CharString>
          <CharString index="61">
            vlineto
            -92 callsubr
          </CharString>
          <CharString index="62">
            hlineto
            6 callgsubr
            return
          </CharString>
          <CharString index="63">
            14 callsubr
            -327 12 callgsubr
            return
          </CharString>
          <CharString index="64">
            -64 callgsubr
            -27 278 callsubr
            -68 277 callsubr
            67 146 callgsubr
            -49 300 callgsubr
            -107 callsubr
            28 -89 callsubr
            -39 68 278 callgsubr
            -68 hlineto
            222 callsubr
            49 -89 callsubr
            return
          </CharString>
          <CharString index="65">
            -6 callgsubr
            172 vlineto
            26 5 5 26 vhcurveto
            42 59 -59 313 callgsubr
            return
          </CharString>
          <CharString index="66">
            -12 callsubr
            53 -69 -190 69 78 104 -105 callsubr
            88 179 callgsubr
            return
          </CharString>
          <CharString index="67">
            -92 vlineto
            -53 26 -26 53 vhcurveto
            -19 callsubr
            return
          </CharString>
          <CharString index="68">
            -88 callsubr
            -327 58 callgsubr
            return
          </CharString>
          <CharString index="69">
            -51 callsubr
            185 143 callsubr
            19 -46 30 -63 vhcurveto
            101 -213 154 callsubr
            return
          </CharString>
          <CharString index="70">
            hlineto
            -108 -158 rlineto
            76 hlineto
            return
          </CharString>
          <CharString index="71">
            -104 callgsubr
            -166 vlineto
            261 callgsubr
            return
          </CharString>
          <CharString index="72">
            -113 -32 callsubr
            return
          </CharString>
          <CharString index="73">
            rmoveto
            -144 -221 -35 callsubr
            return
          </CharString>
          <CharString index="74">
            -102 callgsubr
            -196 vlineto
            40 callgsubr
            return
          </CharString>
          <CharString index="75">
            142 hlineto
            -78 callgsubr
            -131 return
          </CharString>
          <CharString index="76">
            -93 callsubr
            -206 69 206 -107 callsubr
            return
          </CharString>
          <CharString index="77">
            6 callsubr
            endchar
          </CharString>
          <CharString index="78">
            rmoveto
            -390 vlineto
            -27 -10 -9 -24 164 callsubr
            -69 -406 12 callgsubr
            -33 69 485 vlineto
            return
          </CharString>
          <CharString index="79">
            -100 callsubr
            85 -105 callsubr
            -61 callgsubr
            return
          </CharString>
          <CharString index="80">
            rmoveto
            -91 callsubr
            return
          </CharString>
          <CharString index="81">
            51 357 58 -357 rlineto
            35 -217 rmoveto
            69 hlineto
            -107 622 rlineto
            -109 hlineto
            -97 -622 rlineto
            69 hlineto
            23 158 rlineto
            126 hlineto
            endchar
          </CharString>
          <CharString index="82">
            rmoveto
            -106 hlineto
            -78 callsubr
            return
          </CharString>
          <CharString index="83">
            hlineto
            20 12 5 14 6 74 callgsubr
            return
          </CharString>
          <CharString index="84">
            344 -25 callsubr
            return
          </CharString>
          <CharString index="85">
            -54 callsubr
            269 return
          </CharString>
          <CharString index="86">
            rmoveto
            -258 vlineto
            -96 callgsubr
            return
          </CharString>
          <CharString index="87">
            -67 callgsubr
            198 32 -70 callsubr
            91 -3 callsubr
            -429 -395 57 callsubr
            return
          </CharString>
          <CharString index="88">
            52 -89 callsubr
            -114 -23 callgsubr
            return
          </CharString>
          <CharString index="89">
            -106 callgsubr
            -36 callgsubr
            return
          </CharString>
          <CharString index="90">
            -227 -99 callgsubr
            return
          </CharString>
          <CharString index="91">
            280 -34 callsubr
            return
          </CharString>
          <CharString index="92">
            53 -27 -21 15 -74 hhcurveto
            -37 -62 37 hlineto
            43 14 -17 -38 19 hvcurveto
            61 -123 -175 -245 rlineto
            77 hlineto
            145 203 rlineto
            return
          </CharString>
          <CharString index="93">
            20 callsubr
            -182 -86 callsubr
            -181 vlineto
            return
          </CharString>
          <CharString index="94">
            -106 callgsubr
            -25 callgsubr
          </CharString>
          <CharString index="95">
            -62 -100 callsubr
            75 -89 callsubr
            -66 -99 callgsubr
            -83 return
          </CharString>
          <CharString index="96">
            -426 69 -30 callsubr
          </CharString>
          <CharString index="97">
            13 callgsubr
            109 -105 callsubr
            125 -99 callsubr
            -62 -59 41 -89 callsubr
            -103 -99 callgsubr
            -67 -76 callgsubr
            return
          </CharString>
          <CharString index="98">
            -104 callsubr
            -62 -103 callgsubr
            532 -68 -543 -38 callgsubr
            543 return
          </CharString>
          <CharString index="99">
            105 callsubr
            105 45 callsubr
            return
          </CharString>
          <CharString index="100">
            -76 callsubr
            -72 hlineto
            return
          </CharString>
          <CharString index="101">
            -69 -367 hlineto
            -106 callgsubr
            return
          </CharString>
          <CharString index="102">
            24 callsubr
            40 callsubr
            26 5 5 26 vhcurveto
            endchar
          </CharString>
          <CharString index="103">
            -100 callsubr
            102 hlineto
            return
          </CharString>
          <CharString index="104">
            -50 callsubr
            97 hlineto
            return
          </CharString>
          <CharString index="105">
            -105 callgsubr
            197 -99 callsubr
            return
          </CharString>
          <CharString index="106">
            -327 -46 callgsubr
          </CharString>
          <CharString index="107">
            -103 callgsubr
            158 -107 callsubr
            return
          </CharString>
          <CharString index="108">
            -99 callgsubr
            -41 -103 callgsubr
            85 -69 -96 275 callgsubr
            53 26 26 53 hvcurveto
            return
          </CharString>
          <CharString index="109">
            -80 callgsubr
            -126 -103 callgsubr
            167 233 callgsubr
            134 -67 callsubr
            -112 -99 callgsubr
            -336 -88 callsubr
            -158 326 callsubr
            178 91 -178 -100 callsubr
            return
          </CharString>
          <CharString index="110">
            106 callgsubr
            -40 -103 callgsubr
            227 -72 callsubr
            return
          </CharString>
          <CharString index="111">
            10 callsubr
            117 return
          </CharString>
          <CharString index="112">
            -89 6 -46 -39 callgsubr
            return
          </CharString>
          <CharString index="113">
            16 callgsubr
            vlineto
            return
          </CharString>
          <CharString index="114">
            26 8 8 26 vhcurveto
            return
          </CharString>
          <CharString index="115">
            -103 callgsubr
            153 56 vlineto
            -32 callgsubr
            return
          </CharString>
          <CharString index="116">
            -76 callsubr
            351 callsubr
            -249 206 callgsubr
            29 16 14 23 2 hvcurveto
            2 hlineto
            -23 2 15 -14 29 hhcurveto
            99 213 callsubr
            return
          </CharString>
          <CharString index="117">
            -98 callgsubr
            -107 -59 86 -64 callsubr
            -29 hlineto
            -26 -5 5 26 hvcurveto
            88 -69 -99 326 callsubr
            return
          </CharString>
          <CharString index="118">
            -5 5 vhcurveto
            return
          </CharString>
          <CharString index="119" raw="1">
            f70746b9 1d0b  
          </CharString>
          <CharString index="120">
            -8 callgsubr
            102 hlineto
            25 return
          </CharString>
          <CharString index="121">
            24 -8 -20 9 -27 hhcurveto
            -40 -88 callsubr
            return
          </CharString>
          <CharString index="122">
            -106 callgsubr
            116 306 callgsubr
            -69 -106 vlineto
            -26 125 callgsubr
            473 139 -189 318 callsubr
            -59 65 -105 callsubr
            200 65 vlineto
            endchar
          </CharString>
          <CharString index="123">
            rmoveto
            22 3 5 25 vhcurveto
            32 hlineto
            25 3 -5 -22 hvcurveto
            -5 vlineto
            -22 -3 -5 -25 vhcurveto
            -32 hlineto
            -25 -3 5 22 hvcurveto
            74 -71 rmoveto
            44 21 20 45 hvcurveto
            17 vlineto
            45 -21 20 -44 vhcurveto
            -60 hlineto
            -44 -21 -20 -45 hvcurveto
            -17 vlineto
            -45 21 -20 44 vhcurveto
            return
          </CharString>
          <CharString index="124">
            -3 callgsubr
            88 -11 callsubr
          </CharString>
          <CharString index="125">
            -50 callgsubr
            -247 88 callsubr
            -248 -318 -8 callsubr
            690 426 rmoveto
            59 -898 240 callgsubr
            71 -239 hlineto
            -106 callgsubr
            -101 callgsubr
          </CharString>
          <CharString index="126">
            -102 callgsubr
            -211 297 callsubr
            181 -69 -392 hlineto
            -106 callgsubr
            198 62 -177 -103 callgsubr
            138 319 callgsubr
            40 callsubr
            13 -3 8 11 callsubr
            return
          </CharString>
          <CharString index="127">
            -5 -5 -3 -8 -13 vvcurveto
            return
          </CharString>
          <CharString index="128">
            hlineto
            -52 callgsubr
            return
          </CharString>
          <CharString index="129">
            rmoveto
            117 59 callsubr
            -117 vlineto
            return
          </CharString>
          <CharString index="130">
            -104 callgsubr
            -465 135 callsubr
            105 -69 -94 20 callgsubr
            -94 return
          </CharString>
          <CharString index="131">
            64 51 callsubr
            -41 -103 callgsubr
            return
          </CharString>
          <CharString index="132">
            -106 callgsubr
            17 callsubr
          </CharString>
          <CharString index="133">
            -64 callgsubr
            -65 -76 callgsubr
            65 -89 callsubr
            137 168 rmoveto
            59 -408 147 callgsubr
            return
          </CharString>
          <CharString index="134">
            -107 callsubr
            60 hlineto
            return
          </CharString>
          <CharString index="135">
            432 65 callgsubr
            -395 38 callsubr
            return
          </CharString>
          <CharString index="136">
            -107 callgsubr
            197 -82 callsubr
            return
          </CharString>
          <CharString index="137">
            100 -130 rlineto
            76 hlineto
            -100 130 rlineto
            return
          </CharString>
          <CharString index="138">
            hlineto
            -80 callgsubr
            -126 -103 callgsubr
            175 233 callgsubr
            126 -67 callsubr
            46 callgsubr
            -175 hlineto
            -68 callgsubr
            -244 109 callgsubr
            219 79 callgsubr
            -123 69 303 callsubr
            63 -186 hlineto
            -106 callgsubr
            return
          </CharString>
          <CharString index="139">
            -55 callgsubr
            endchar
          </CharString>
          <CharString index="140">
            vlineto
            25 callsubr
          </CharString>
          <CharString index="141">
            -48 callsubr
            -72 callgsubr
            -87 69 362 -26 callgsubr
            71 304 callsubr
            return
          </CharString>
          <CharString index="142">
            -59 235 -78 -101 271 callgsubr
            81 -89 callsubr
            -66 -99 callgsubr
            -78 53 -69 -190 69 78 350 callsubr
            88 -99 callsubr
            -81 hlineto
            45 callgsubr
            return
          </CharString>
          <CharString index="143">
            -64 callgsubr
            -39 256 callgsubr
            143 135 callgsubr
            return
          </CharString>
          <CharString index="144">
            622 rmoveto
            return
          </CharString>
          <CharString index="145">
            -83 callsubr
            337 callgsubr
            78 hlineto
            return
          </CharString>
          <CharString index="146">
            vhcurveto
            -75 -141 -18 callgsubr
            return
          </CharString>
          <CharString index="147">
            227 vlineto
            return
          </CharString>
          <CharString index="148">
            -44 242 374 -64 callgsubr
            -62 0 callsubr
            62 hlineto
            26 5 -5 -26 hvcurveto
            -442 vmoveto
            -104 callsubr
            -62 -103 callgsubr
            162 35 callgsubr
            68 291 306 callsubr
            298 callsubr
            -183 vlineto
            -29 14 -17 23 -2 vhcurveto
            -23 -4 -14 -14 -29 vvcurveto
            -186 -38 callgsubr
            186 vlineto
            29 -14 14 -23 4 vhcurveto
            23 2 14 17 29 vvcurveto
            endchar
          </CharString>
          <CharString index="149">
            7 callgsubr
            -63 -241 -30 callgsubr
            91 -36 134 callgsubr
            151 -24 callsubr
            return
          </CharString>
          <CharString index="150">
            -24 -8 -9 175 callsubr
            26 5 5 26 vhcurveto
            41 55 callgsubr
            74 hlineto
            return
          </CharString>
          <CharString index="151">
            113 -373 69 -30 callsubr
          </CharString>
          <CharString index="152">
            -392 vlineto
            -80 callgsubr
            return
          </CharString>
          <CharString index="153">
            -19 callgsubr
            -100 return
          </CharString>
          <CharString index="154">
            rmoveto
            68 callgsubr
            -69 -30 -73 vlineto
            336 callsubr
            426 vlineto
            -569 -426 -8 callsubr
            673 485 rmoveto
            -881 208 callgsubr
            362 -26 callgsubr
            71 -239 124 callsubr
          </CharString>
          <CharString index="155">
            vvcurveto
            -61 callgsubr
            121 137 90 59 hlineto
            endchar
          </CharString>
          <CharString index="156">
            -310 -45 callsubr
            91 219 callsubr
            return
          </CharString>
          <CharString index="157">
            201 -1 callgsubr
            return
          </CharString>
          <CharString index="158">
            -95 callsubr
            -87 69 266 -69 -95 vlineto
            -80 callgsubr
            return
          </CharString>
          <CharString index="159">
            rmoveto
            56 hlineto
            -32 callgsubr
            199 59 -463 196 callsubr
            275 77 -51 callsubr
            180 -35 callgsubr
            -202 vlineto
            -98 callsubr
            55 vhcurveto
            -115 -161 rlineto
            74 hlineto
            135 190 rlineto
            30 vlineto
            endchar
          </CharString>
          <CharString index="160">
            -287 hlineto
            61 callsubr
            return
          </CharString>
          <CharString index="161">
            -107 callgsubr
            151 136 callgsubr
            -85 69 96 -99 callsubr
            return
          </CharString>
          <CharString index="162">
            rmoveto
            198 220 rlineto
            92 vlineto
            -283 -312 rlineto
            80 268 139 callgsubr
            69 59 rmoveto
            220 callgsubr
            -99 vlineto
            -53 -26 -26 -53 hvcurveto
            232 callgsubr
            134 59 vlineto
            endchar
          </CharString>
          <CharString index="163">
            rmoveto
            93 -89 callsubr
            -182 305 callsubr
            150 -319 rmoveto
            74 hlineto
            -94 261 rlineto
            42 5 20 26 47 vvcurveto
            204 -99 callsubr
            -181 -622 68 260 59 hlineto
            endchar
          </CharString>
          <CharString index="164">
            -27 callsubr
            167 27 callsubr
            return
          </CharString>
          <CharString index="165">
            -100 callsubr
            110 59 -89 96 callsubr
            return
          </CharString>
          <CharString index="166">
            -107 callsubr
            50 -89 callsubr
            return
          </CharString>
          <CharString index="167">
            vlineto
            -74 callgsubr
            151 -24 callsubr
            return
          </CharString>
          <CharString index="168">
            177 callsubr
            -69 -298 -54 callsubr
            239 87 -239 vlineto
            return
          </CharString>
          <CharString index="169">
            -106 callsubr
            62 -89 callsubr
            return
          </CharString>
          <CharString index="170">
            hlineto
            -71 callsubr
            141 return
          </CharString>
          <CharString index="171">
            134 59 -134 210 164 59 -233 -622 240 59 return
          </CharString>
          <CharString index="172">
            -6 callgsubr
            186 -35 callgsubr
            -208 207 callsubr
            return
          </CharString>
          <CharString index="173">
            0 hvcurveto
            -3 hlineto
            -4 21 -10 37 -11 34 -14 43 rcurveline
            -74 hlineto
            32 -62 27 -53 21 -32 31 -44 rlinecurve
            -4 hlineto
            -30 43 -28 35 -62 67 -43 46 rcurveline
            return
          </CharString>
          <CharString index="174">
            108 callsubr
            124 -105 callsubr
            return
          </CharString>
          <CharString index="175">
            69 390 vlineto
            27 10 9 24 27 callgsubr
            -395 69 return
          </CharString>
          <CharString index="176">
            rmoveto
            -82 hlineto
            -78 -127 rlineto
            62 hlineto
            return
          </CharString>
          <CharString index="177">
            65 callgsubr
            -345 rmoveto
            -26 -5 -5 -26 vhcurveto
            -47 hlineto
            -26 -5 5 26 hvcurveto
            124 243 callsubr
            -146 -77 callgsubr
            166 113 -134 -22 callgsubr
          </CharString>
          <CharString index="178">
            rmoveto
            -40 -99 callgsubr
            -68 178 callsubr
            -64 179 callsubr
            100 351 callgsubr
            vlineto
            endchar
          </CharString>
          <CharString index="179">
            -106 callgsubr
            234 62 -213 8 callsubr
            return
          </CharString>
          <CharString index="180">
            -131 263 callgsubr
            return
          </CharString>
          <CharString index="181">
            -99 callgsubr
            -77 return
          </CharString>
          <CharString index="182">
            hlineto
            -106 callgsubr
            63 -90 callsubr
          </CharString>
          <CharString index="183">
            -51 callsubr
            194 vlineto
            0 12 -23 39 -67 vhcurveto
            77 -132 rlineto
            -2 -5 -7 -1 -9 hhcurveto
            178 455 rmoveto
            -424 -59 280 -212 hlineto
            -89 6 -46 0 vhcurveto
            0 -18 40 -28 46 vhcurveto
            -76 124 rlineto
            76 59 -91 -88 callsubr
            -219 vlineto
            -53 26 -26 53 vhcurveto
            52 -61 callsubr
          </CharString>
          <CharString index="184">
            72 callsubr
            220 -346 hlineto
            -54 callgsubr
            -134 65 -30 callsubr
          </CharString>
          <CharString index="185">
            195 callgsubr
            108 59 -258 vlineto
            -104 callgsubr
            return
          </CharString>
          <CharString index="186">
            59 -204 80 callsubr
            return
          </CharString>
          <CharString index="187">
            -59 71 254 callgsubr
            return
          </CharString>
          <CharString index="188">
            -44 callgsubr
            endchar
          </CharString>
          <CharString index="189">
            -43 callsubr
            endchar
          </CharString>
          <CharString index="190">
            rmoveto
            -26 -8 -8 -26 vhcurveto
            -135 hlineto
            -26 -5 5 26 hvcurveto
            117 191 callsubr
            -187 hlineto
            238 callsubr
          </CharString>
          <CharString index="191">
            rmoveto
            -68 callsubr
            return
          </CharString>
          <CharString index="192">
            -78 68 callgsubr
            return
          </CharString>
          <CharString index="193">
            -59 413 3 callsubr
            -229 hlineto
            -53 -26 -26 -53 hvcurveto
            -327 171 callsubr
            return
          </CharString>
          <CharString index="194">
            185 callgsubr
            77 -24 callsubr
            return
          </CharString>
          <CharString index="195">
            -108 151 callgsubr
            105 -108 vlineto
            return
          </CharString>
          <CharString index="196">
            -76 hlineto
            -53 -84 -52 84 rlineto
            -76 hlineto
            return
          </CharString>
          <CharString index="197">
            98 -70 callsubr
            return
          </CharString>
          <CharString index="198">
            rmoveto
            -26 -5 -5 -26 vhcurveto
            -29 hlineto
            -26 -5 5 26 hvcurveto
            143 244 callgsubr
            308 callsubr
            88 -187 -22 callgsubr
          </CharString>
          <CharString index="199">
            rmoveto
            -26 -8 -8 -26 vhcurveto
            -135 hlineto
            -26 -5 5 26 hvcurveto
            147 191 callsubr
            -217 hlineto
            -92 callsubr
          </CharString>
          <CharString index="200">
            -265 109 callgsubr
            240 79 callgsubr
            -174 69 337 callgsubr
            return
          </CharString>
          <CharString index="201">
            -51 callsubr
            157 21 callgsubr
            -188 hlineto
            -104 callsubr
            return
          </CharString>
          <CharString index="202">
            -59 65 -406 hlineto
            -18 callsubr
            406 return
          </CharString>
          <CharString index="203">
            -103 callgsubr
            36 -107 callsubr
            return
          </CharString>
          <CharString index="204">
            -126 -20 37 callsubr
            -59 316 59 vlineto
            -177 -454 rmoveto
            40 callsubr
            0 15 -39 36 -68 vhcurveto
            81 -151 rlineto
            -101 -103 callgsubr
            -69 238 rmoveto
            -48 callsubr
            92 hlineto
            -107 -128 rlineto
            81 hlineto
            101 128 rlineto
            46 vlineto
            0 -50 115 -7 callgsubr
            return
          </CharString>
          <CharString index="205">
            rmoveto
            -165 vlineto
            -53 26 -26 53 vhcurveto
            102 145 callsubr
            -165 vlineto
            162 callsubr
            endchar
          </CharString>
          <CharString index="206">
            26 hlineto
            56 22 30 46 hvcurveto
            60 -64 -46 vlineto
            -23 -3 -12 -24 vhcurveto
            -79 -13 82 -81 hhcurveto
            -29 hlineto
            -55 -22 -29 -47 hvcurveto
            -60 64 47 vlineto
            21 5 13 25 vhcurveto
            70 7 -82 95 hhcurveto
            return
          </CharString>
          <CharString index="207">
            -8 hlineto
            122 callgsubr
            return
          </CharString>
          <CharString index="208">
            26 27 callgsubr
            return
          </CharString>
          <CharString index="209">
            -206 -54 callsubr
            -11 callgsubr
          </CharString>
          <CharString index="210">
            -74 hlineto
            22 -52 25 -58 15 -42 21 -39 rlinecurve
            -4 hlineto
            -25 42 -29 39 -59 64 -42 46 rcurveline
            return
          </CharString>
          <CharString index="211">
            rmoveto
            210 232 rlineto
            94 vlineto
            -295 -326 rlineto
            9 257 94 callsubr
            -204 415 rmoveto
            -59 235 -78 -101 vlineto
            279 callsubr
            137 59 vlineto
            endchar
          </CharString>
          <CharString index="212">
            -51 callsubr
            395 return
          </CharString>
          <CharString index="213">
            -166 vlineto
            261 callgsubr
            44 callsubr
          </CharString>
          <CharString index="214">
            153 callsubr
            107 -105 callsubr
            147 callsubr
          </CharString>
          <CharString index="215">
            139 callsubr
            -98 callsubr
            53 vhcurveto
            return
          </CharString>
          <CharString index="216">
            16 -37 callsubr
            return
          </CharString>
          <CharString index="217">
            -100 callsubr
            36 return
          </CharString>
          <CharString index="218">
            -106 callgsubr
            33 callgsubr
          </CharString>
          <CharString index="219">
            hlineto
            89 callgsubr
            -160 vlineto
            5 callsubr
            113 -24 callsubr
            -36 callgsubr
            return
          </CharString>
          <CharString index="220">
            -249 33 callsubr
          </CharString>
          <CharString index="221">
            vlineto
            -91 callsubr
            return
          </CharString>
          <CharString index="222">
            rmoveto
            27 hlineto
            53 121 rlineto
            39 -80 vlineto
            return
          </CharString>
          <CharString index="223">
            -1 callgsubr
            208 hmoveto
            59 -450 214 callsubr
            105 59 -107 176 callsubr
            vlineto
            endchar
          </CharString>
          <CharString index="224" raw="1">
            930af770 0b  
          </CharString>
          <CharString index="225">
            -100 callsubr
            52 return
          </CharString>
          <CharString index="226">
            -35 321 161 callgsubr
            68 59 -409 -59 272 -78 -123 vlineto
            -104 callgsubr
            -40 -4 callsubr
            26 5 -5 -26 hvcurveto
            -25 221 callsubr
            25 -69 -40 -86 callsubr
            return
          </CharString>
          <CharString index="227">
            -114 93 532 203 callsubr
            36 -89 callsubr
            -40 vlineto
            -48 -5 -33 -18 -42 vhcurveto
            -142 -311 rlineto
            -58 239 59 -168 vlineto
            137 299 rlineto
            20 47 6 34 49 vvcurveto
            55 -99 callsubr
            -77 -88 callsubr
            -121 68 vlineto
            endchar
          </CharString>
          <CharString index="228">
            -103 callgsubr
            130 -107 callsubr
            return
          </CharString>
          <CharString index="229">
            118 callsubr
            hlineto
            return
          </CharString>
          <CharString index="230">
            -317 hlineto
            -65 callsubr
            return
          </CharString>
          <CharString index="231">
            hlineto
            -18 callsubr
            269 87 -11 callsubr
          </CharString>
          <CharString index="232">
            137 75 59 -387 311 callsubr
            -89 return
          </CharString>
          <CharString index="233">
            rmoveto
            -53 callsubr
            return
          </CharString>
          <CharString index="234">
            -50 callgsubr
            208 hmoveto
            59 -450 240 callgsubr
            105 59 -107 241 callsubr
          </CharString>
          <CharString index="235">
            195 callsubr
            -87 69 return
          </CharString>
          <CharString index="236">
            26 5 5 101 callsubr
            return
          </CharString>
          <CharString index="237">
            rmoveto
            65 vlineto
            53 -26 26 -53 vhcurveto
            -92 hlineto
            162 callgsubr
            vlineto
            endchar
          </CharString>
          <CharString index="238">
            -83 284 312 callgsubr
            -244 -298 144 204 callgsubr
            -203 -86 callgsubr
            102 -69 -113 -100 callsubr
            86 -105 callsubr
            225 -99 callsubr
            -96 180 hlineto
            endchar
          </CharString>
          <CharString index="239">
            -258 vlineto
            -96 callgsubr
            -100 -269 rmoveto
            259 callgsubr
            -55 216 rmoveto
            -59 403 59 vlineto
            endchar
          </CharString>
          <CharString index="240">
            rmoveto
            98 127 rlineto
            -74 hlineto
            -78 -127 rlineto
            52 127 rmoveto
            -74 hlineto
            -78 -127 rlineto
            54 hlineto
            return
          </CharString>
          <CharString index="241">
            -99 callgsubr
            -34 -59 55 -105 callsubr
            return
          </CharString>
          <CharString index="242">
            -100 callsubr
            97 -105 callsubr
            return
          </CharString>
          <CharString index="243">
            -219 -100 callsubr
            return
          </CharString>
          <CharString index="244">
            -327 -27 callgsubr
            124 callgsubr
            return
          </CharString>
          <CharString index="245">
            -53 -26 -26 -53 hvcurveto
            113 callsubr
          </CharString>
          <CharString index="246">
            -59 75 -236 hlineto
            -87 callgsubr
            -153 vlineto
            return
          </CharString>
          <CharString index="247">
            170 callsubr
            75 return
          </CharString>
          <CharString index="248">
            -59 174 hlineto
            -13 callgsubr
            -115 -99 callgsubr
            -85 -59 85 -89 callsubr
            -205 -86 callgsubr
            116 -69 -127 -100 callsubr
            86 -105 callsubr
            return
          </CharString>
          <CharString index="249">
            hlineto
            150 callgsubr
            return
          </CharString>
          <CharString index="250">
            vlineto
            71 -9 50 0 vhcurveto
            0 return
          </CharString>
          <CharString index="251">
            -69 -95 hlineto
            157 callsubr
            137 125 callsubr
            -88 callsubr
            314 callgsubr
            return
          </CharString>
          <CharString index="252">
            115 callgsubr
            42 return
          </CharString>
          <CharString index="253">
            hlineto
            159 callsubr
            return
          </CharString>
          <CharString index="254">
            130 callgsubr
            hlineto
            endchar
          </CharString>
          <CharString index="255">
            142 vlineto
            -47 callgsubr
            return
          </CharString>
          <CharString index="256">
            -57 292 161 callgsubr
            82 59 -394 323 callgsubr
            -43 17 -26 36 -7 vhcurveto
            -54 154 callgsubr
            21 vlineto
            14 11 3 6 7 hvcurveto
            return
          </CharString>
          <CharString index="257">
            -27 259 622 260 callgsubr
            return
          </CharString>
          <CharString index="258">
            -78 205 callsubr
            return
          </CharString>
          <CharString index="259">
            rmoveto
            -106 callgsubr
            16 145 callsubr
            -79 vlineto
            29 callsubr
            -68 216 rmoveto
            -59 247 59 vlineto
            endchar
          </CharString>
          <CharString index="260">
            26 callsubr
            -98 callsubr
            53 vhcurveto
            return
          </CharString>
          <CharString index="261">
            rlineto
            -11 -4 -9 -4 -18 hhcurveto
            return
          </CharString>
          <CharString index="262">
            320 callsubr
            vlineto
            172 callgsubr
            return
          </CharString>
          <CharString index="263">
            157 hlineto
            -167 -367 rlineto
            -59 236 59 -167 vlineto
            167 367 rlineto
            return
          </CharString>
          <CharString index="264">
            -80 callgsubr
            -41 -103 callgsubr
            227 -107 callsubr
            return
          </CharString>
          <CharString index="265">
            37 callsubr
            -419 -59 419 hlineto
            -285 -78 rmoveto
            -69 -328 hlineto
            -18 callsubr
            269 120 59 -189 -317 271 callsubr
            endchar
          </CharString>
          <CharString index="266">
            -104 callgsubr
            -464 -100 callsubr
            return
          </CharString>
          <CharString index="267">
            -59 170 callgsubr
            return
          </CharString>
          <CharString index="268">
            250 callgsubr
            123 352 callsubr
            -154 rmoveto
            -26 -5 -5 -26 vhcurveto
            -29 322 callsubr
            60 hlineto
            return
          </CharString>
          <CharString index="269">
            -107 callgsubr
            95 -56 callsubr
            return
          </CharString>
          <CharString index="270">
            -220 -237 rlineto
            82 hlineto
            138 153 rlineto
            -103 69 -30 callsubr
          </CharString>
          <CharString index="271">
            vhcurveto
            -40 -103 callgsubr
            395 return
          </CharString>
          <CharString index="272">
            -59 211 hlineto
            264 callsubr
            167 59 -146 -103 callgsubr
            195 218 vlineto
            -157 -167 rlineto
            76 hlineto
            return
          </CharString>
          <CharString index="273">
            vlineto
            29 -14 15 -23 2 vhcurveto
            2 vlineto
            23 2 14 16 29 vvcurveto
            return
          </CharString>
          <CharString index="274">
            44 -9 64 0 vhcurveto
            0 20 -46 26 -42 vhcurveto
            return
          </CharString>
          <CharString index="275">
            -245 114 hmoveto
            485 -69 -485 vlineto
            return
          </CharString>
          <CharString index="276">
            -107 callsubr
            32 return
          </CharString>
          <CharString index="277">
            -563 68 563 return
          </CharString>
          <CharString index="278">
            58 callgsubr
            75 hlineto
            128 callsubr
            return
          </CharString>
          <CharString index="279">
            -106 callgsubr
            -72 callgsubr
            -87 69 392 -26 callgsubr
            72 265 callsubr
            return
          </CharString>
          <CharString index="280">
            vvcurveto
            230 callgsubr
            -374 -59 233 -78 -79 -88 callsubr
            -327 vlineto
            return
          </CharString>
          <CharString index="281">
            -80 hlineto
            -7 callsubr
            return
          </CharString>
          <CharString index="282">
            -26 vhcurveto
            -60 -103 callgsubr
            40 callsubr
            return
          </CharString>
          <CharString index="283">
            hlineto
            -53 callsubr
            87 return
          </CharString>
          <CharString index="284">
            -59 callsubr
            287 return
          </CharString>
          <CharString index="285">
            -103 callgsubr
            40 return
          </CharString>
          <CharString index="286">
            -46 -100 callsubr
            return
          </CharString>
          <CharString index="287">
            hlineto
            10 callsubr
            return
          </CharString>
          <CharString index="288">
            -102 callgsubr
            -227 290 callgsubr
            243 vlineto
            13 -3 8 11 callsubr
            95 -426 69 563 76 hlineto
            endchar
          </CharString>
          <CharString index="289">
            -76 hlineto
            100 -130 rlineto
            76 hlineto
            endchar
          </CharString>
          <CharString index="290">
            45 vvcurveto
            -61 callgsubr
            return
          </CharString>
          <CharString index="291">
            -376 -100 callsubr
            109 callsubr
            return
          </CharString>
          <CharString index="292">
            16 5 8 12 vhcurveto
            25 27 -35 43 hhcurveto
            return
          </CharString>
          <CharString index="293">
            -89 6 -46 214 callgsubr
            49 -26 47 vhcurveto
            -70 -149 235 callsubr
            return
          </CharString>
          <CharString index="294">
            -100 callsubr
            71 hlineto
            32 20 20 18 5 hvcurveto
            -18 5 21 -20 29 hhcurveto
            80 196 callgsubr
            return
          </CharString>
          <CharString index="295">
            -57 292 426 220 callsubr
            return
          </CharString>
          <CharString index="296">
            224 callsubr
            131 return
          </CharString>
          <CharString index="297">
            26 5 4 -9 callgsubr
            return
          </CharString>
          <CharString index="298">
            -74 callsubr
            97 hlineto
            144 callgsubr
            -488 302 callgsubr
            return
          </CharString>
          <CharString index="299">
            -89 callsubr
            -101 -75 -59 75 -563 69 16 callgsubr
            return
          </CharString>
          <CharString index="300">
            -76 219 299 callsubr
            -40 hlineto
            -24 -10 9 27 hvcurveto
            295 vlineto
            27 10 9 24 27 callgsubr
            -50 90 rmoveto
            236 callgsubr
            return
          </CharString>
          <CharString index="301">
            313 callgsubr
            18 12 4 11 7 hvcurveto
            return
          </CharString>
          <CharString index="302">
            -47 callsubr
            -48 callsubr
            -72 callgsubr
            return
          </CharString>
          <CharString index="303">
            -59 172 hlineto
            -33 callsubr
            -69 -392 hlineto
            -106 callgsubr
            130 62 -109 -103 callgsubr
            return
          </CharString>
          <CharString index="304">
            -64 callgsubr
            -107 504 107 276 callsubr
            90 rmoveto
            -622 182 callgsubr
          </CharString>
          <CharString index="305">
            157 callsubr
            endchar
          </CharString>
          <CharString index="306">
            -104 callgsubr
            -73 -86 callsubr
            -69 -100 callsubr
            225 59 -204 -103 callgsubr
            return
          </CharString>
          <CharString index="307">
            -79 325 186 rmoveto
            -53 118 -66 -118 -131 hlineto
            161 436 rlineto
            -67 hlineto
            -164 -442 rlineto
            -53 201 -127 66 127 53 vlineto
            endchar
          </CharString>
          <CharString index="308">
            250 callsubr
            3 5 28 vhcurveto
            return
          </CharString>
          <CharString index="309">
            -107 callsubr
            61 return
          </CharString>
          <CharString index="310">
            rmoveto
            -106 callsubr
            return
          </CharString>
          <CharString index="311">
            -59 269 -78 -125 227 callgsubr
            return
          </CharString>
          <CharString index="312">
            -238 -88 callsubr
            return
          </CharString>
          <CharString index="313">
            -58 -100 callsubr
            76 59 -55 96 callsubr
            53 hlineto
            25 12 -14 -21 13 hvcurveto
            75 -120 rlineto
            83 hlineto
            return
          </CharString>
          <CharString index="314">
            122 callsubr
            19 13 5 12 7 hvcurveto
            -39 6 25 -19 46 hhcurveto
            return
          </CharString>
          <CharString index="315">
            212 callsubr
            -76 140 rlineto
            76 59 return
          </CharString>
          <CharString index="316">
            -27 -10 -9 -24 vhcurveto
            return
          </CharString>
          <CharString index="317">
            -392 -96 callsubr
            return
          </CharString>
          <CharString index="318">
            225 callsubr
            44 callsubr
          </CharString>
          <CharString index="319">
            -238 hlineto
            -89 6 -46 214 callgsubr
            49 -26 47 vhcurveto
            return
          </CharString>
          <CharString index="320">
            -105 callsubr
            249 -99 callsubr
            return
          </CharString>
          <CharString index="321">
            -59 68 184 callsubr
            111 167 rlineto
            -117 69 392 -26 callgsubr
            return
          </CharString>
          <CharString index="322">
            -73 rmoveto
            -26 -9 -11 -26 vhcurveto
            -37 -58 48 hlineto
            54 35 28 61 hvcurveto
            28 -65 vlineto
            return
          </CharString>
          <CharString index="323">
            196 634 -196 hlineto
            236 -185 rmoveto
            196 185 -196 hlineto
            return
          </CharString>
          <CharString index="324">
            -47 callsubr
            14 callgsubr
            113 -342 69 -30 callsubr
          </CharString>
          <CharString index="325">
            140 59 -51 callsubr
            306 97 callgsubr
            24 10 -9 -27 hvcurveto
            -296 236 callsubr
            34 return
          </CharString>
          <CharString index="326">
            304 callgsubr
            86 -105 callsubr
            132 -69 -121 -86 callgsubr
            return
          </CharString>
          <CharString index="327">
            rmoveto
            125 callsubr
            vlineto
            -104 callgsubr
            return
          </CharString>
          <CharString index="328">
            305 callsubr
            -26 -5 5 26 hvcurveto
            return
          </CharString>
          <CharString index="329">
            -104 callgsubr
            273 callgsubr
            return
          </CharString>
          <CharString index="330">
            rmoveto
            88 84 -88 hlineto
            176 -84 rmoveto
            88 84 -88 hlineto
            return
          </CharString>
          <CharString index="331">
            hlineto
            -43 -26 -17 -36 -7 hvcurveto
            -108 return
          </CharString>
          <CharString index="332">
            -49 callgsubr
            216 return
          </CharString>
          <CharString index="333" raw="1">
            fb0d0771 0b  
          </CharString>
          <CharString index="334">
            813 rmoveto
            -55 hlineto
            -53 -26 -25 -53 hvcurveto
            -136 69 125 vlineto
            26 5 4 26 vhcurveto
            34 hlineto
            -35 -35 242 callsubr
          </CharString>
          <CharString index="335">
            160 callsubr
            hlineto
            endchar
          </CharString>
          <CharString index="336">
            206 rmoveto
            14 12 2 3 10 hvcurveto
            -121 vlineto
            -24 -7 -7 -23 vhcurveto
            -78 320 callgsubr
            88 -107 callsubr
            return
          </CharString>
          <CharString index="337">
            -51 callsubr
            121 -57 callsubr
            122 -107 callsubr
            return
          </CharString>
          <CharString index="338">
            rmoveto
            59 -69 79 -69 -79 -44 -59 44 304 callgsubr
            59 64 -38 -103 callgsubr
            331 vlineto
            endchar
          </CharString>
          <CharString index="339">
            -55 -103 callgsubr
            return
          </CharString>
          <CharString index="340">
            rmoveto
            -236 -58 236 hlineto
            return
          </CharString>
          <CharString index="341">
            320 callsubr
            -88 callsubr
            76 callgsubr
            -158 vlineto
            return
          </CharString>
          <CharString index="342">
            -75 callsubr
            178 485 rmoveto
            return
          </CharString>
          <CharString index="343">
            vlineto
            209 callsubr
            return
          </CharString>
          <CharString index="344">
            315 callgsubr
            197 -70 callgsubr
            return
          </CharString>
          <CharString index="345">
            -106 callgsubr
            111 -61 callsubr
          </CharString>
          <CharString index="346">
            314 callsubr
            -483 -59 181 -78 -32 -88 callsubr
            return
          </CharString>
          <CharString index="347">
            rmoveto
            -83 -365 -88 365 rlineto
            -69 hlineto
            123 -432 rlineto
            -190 68 190 vlineto
            118 432 rlineto
            endchar
          </CharString>
          <CharString index="348">
            hlineto
            336 callsubr
            vlineto
            endchar
          </CharString>
          <CharString index="349">
            rmoveto
            -66 63 66 vlineto
            endchar
          </CharString>
          <CharString index="350">
            -107 callsubr
            78 hlineto
            326 249 rmoveto
            -559 339 callsubr
            return
          </CharString>
          <CharString index="351">
            -59 68 -219 hlineto
            -87 callgsubr
            -170 -100 callsubr
            return
          </CharString>
          <CharString index="352">
            rmoveto
            137 72 59 -421 -59 280 -78 -126 vlineto
            328 callgsubr
            return
          </CharString>
          <CharString index="353">
            69 174 vlineto
            -24 8 20 -9 27 hhcurveto
            40 -105 callsubr
            327 -48 callgsubr
          </CharString>
          <CharString index="354">
            -269 124 callsubr
          </CharString>
          <CharString index="355">
            vlineto
            -63 callsubr
            -80 return
          </CharString>
          <CharString index="356">
            55 -105 callsubr
            219 -99 callsubr
            return
          </CharString>
          <CharString index="357">
            -88 callsubr
            -67 69 56 vlineto
            26 return
          </CharString>
          <CharString index="358">
            rmoveto
            -144 -421 hlineto
            -80 callgsubr
            return
          </CharString>
          <CharString index="359">
            -78 -19 vlineto
            -104 callgsubr
            -327 vlineto
            return
          </CharString>
          <CharString index="360">
            308 161 callgsubr
            return
          </CharString>
          <CharString index="361">
            -224 288 callgsubr
            return
          </CharString>
          <CharString index="362">
            -107 callsubr
            41 return
          </CharString>
          <CharString index="363">
            -9 -5 -5 -10 -16 vvcurveto
            return
          </CharString>
          <CharString index="364">
            129 callgsubr
            182 return
          </CharString>
          <CharString index="365">
            -31 rmoveto
            -69 -485 69 350 hlineto
            51 19 24 44 vhcurveto
            30 60 -21 hlineto
            -39 -24 -28 -28 -9 hvcurveto
            endchar
          </CharString>
          <CharString index="366">
            -174 270 callsubr
            return
          </CharString>
          <CharString index="367">
            -69 -95 vlineto
            198 callsubr
          </CharString>
          <CharString index="368">
            296 callgsubr
            -327 vlineto
            return
          </CharString>
          <CharString index="369">
            -26 -8 -8 -26 164 callsubr
            return
          </CharString>
          <CharString index="370">
            -258 hlineto
            -68 callgsubr
            return
          </CharString>
          <CharString index="371">
            -71 callsubr
            102 -6 callsubr
            return
          </CharString>
          <CharString index="372">
            hlineto
            -47 callsubr
            64 callgsubr
            return
          </CharString>
          <CharString index="373">
            vvcurveto
            147 callsubr
          </CharString>
          <CharString index="374">
            -107 callgsubr
            117 -74 callsubr
            return
          </CharString>
          <CharString index="375">
            hmoveto
            280 callgsubr
            return
          </CharString>
          <CharString index="376">
            126 175 306 callsubr
            -30 -59 9 -89 callsubr
            -241 69 77 return
          </CharString>
          <CharString index="377">
            -27 callsubr
            143 27 callsubr
            return
          </CharString>
          <CharString index="378">
            vlineto
            -59 callsubr
            return
          </CharString>
          <CharString index="379">
            -347 hlineto
            -106 callgsubr
            return
          </CharString>
          <CharString index="380">
            -185 -100 callsubr
            return
          </CharString>
          <CharString index="381" raw="1">
            220af7e4 0b  
          </CharString>
          <CharString index="382">
            106 vlineto
            -47 callsubr
            return
          </CharString>
          <CharString index="383">
            -89 callsubr
            -207 return
          </CharString>
          <CharString index="384">
            -49 -100 callsubr
            return
          </CharString>
          <CharString index="385">
            -103 callgsubr
            39 return
          </CharString>
          <CharString index="386">
            -104 callgsubr
            -179 -34 callgsubr
            336 return
          </CharString>
          <CharString index="387">
            485 rmoveto
            68 callgsubr
            return
          </CharString>
          <CharString index="388">
            -105 callgsubr
            46 -64 -40 -99 callgsubr
            -68 178 callsubr
            return
          </CharString>
          <CharString index="389">
            704 rmoveto
            59 -55 vlineto
            -53 -26 -25 -53 hvcurveto
            -86 69 75 vlineto
            26 5 4 26 vhcurveto
            endchar
          </CharString>
          <CharString index="390">
            rmoveto
            -84 88 84 vlineto
            endchar
          </CharString>
          <CharString index="391">
            -106 callsubr
            36 59 -36 329 callgsubr
            return
          </CharString>
          <CharString index="392">
            278 22 callsubr
            return
          </CharString>
          <CharString index="393">
            rmoveto
            -74 hlineto
            -110 -229 110 -256 rlineto
            74 hlineto
            -113 256 rlineto
            endchar
          </CharString>
          <CharString index="394">
            -64 callgsubr
            -77 111 return
          </CharString>
          <CharString index="395">
            13 20 -7 28 hhcurveto
            return
          </CharString>
          <CharString index="396">
            -25 callsubr
            102 hlineto
            return
          </CharString>
          <CharString index="397">
            -4 callsubr
            25 15 5 14 9 74 callgsubr
            return
          </CharString>
          <CharString index="398">
            -74 hlineto
            -131 -314 129 -308 rlineto
            74 hlineto
            -132 308 rlineto
            endchar
          </CharString>
          <CharString index="399">
            hlineto
            -41 72 rlineto
            45 -26 -23 16 -56 hhcurveto
            -27 98 hlineto
            13 -3 8 11 callsubr
            return
          </CharString>
          <CharString index="400">
            26 5 4 27 1 vhcurveto
            40 79 callsubr
            return
          </CharString>
          <CharString index="401">
            74 callsubr
            47 317 callgsubr
            198 return
          </CharString>
          <CharString index="402">
            rmoveto
            137 76 59 -399 -59 254 -78 return
          </CharString>
          <CharString index="403">
            vhcurveto
            -10 29 -9 25 -32 68 -104 217 rcurveline
            return
          </CharString>
          <CharString index="404">
            -99 callgsubr
            -35 return
          </CharString>
          <CharString index="405">
            -102 -88 callsubr
            return
          </CharString>
          <CharString index="406">
            90 -64 callgsubr
            return
          </CharString>
          <CharString index="407">
            -23 -5 5 23 hvcurveto
            return
          </CharString>
          <CharString index="408">
            vlineto
            -13 callgsubr
            -97 337 callsubr
            219 rmoveto
            return
          </CharString>
          <CharString index="409">
            312 callsubr
            563 return
          </CharString>
          <CharString index="410">
            123 -107 callsubr
            return
          </CharString>
          <CharString index="411">
            -317 hlineto
            -106 callgsubr
            return
          </CharString>
          <CharString index="412">
            -99 callgsubr
            -93 hlineto
            return
          </CharString>
          <CharString index="413">
            rmoveto
            -98 callgsubr
            return
          </CharString>
          <CharString index="414">
            rmoveto
            96 callgsubr
            563 -69 return
          </CharString>
          <CharString index="415">
            -165 326 callsubr
            185 return
          </CharString>
          <CharString index="416">
            -193 156 37 callsubr
            -136 -59 68 -563 68 hlineto
            endchar
          </CharString>
          <CharString index="417">
            rmoveto
            137 90 59 return
          </CharString>
          <CharString index="418">
            -59 243 -78 return
          </CharString>
          <CharString index="419">
            327 callsubr
            -203 68 return
          </CharString>
          <CharString index="420">
            -106 callgsubr
            242 callgsubr
            -120 69 return
          </CharString>
          <CharString index="421">
            21 callgsubr
            137 89 hlineto
            144 callgsubr
            return
          </CharString>
          <CharString index="422">
            171 rmoveto
            -80 callgsubr
            -40 -103 callgsubr
            return
          </CharString>
          <CharString index="423">
            hlineto
            45 callgsubr
            endchar
          </CharString>
          <CharString index="424">
            -138 348 callgsubr
            return
          </CharString>
          <CharString index="425">
            -99 callgsubr
            -44 return
          </CharString>
          <CharString index="426">
            426 310 callsubr
            return
          </CharString>
          <CharString index="427">
            -59 259 -78 -105 return
          </CharString>
          <CharString index="428" raw="1">
            241df7a4 200a0b  
          </CharString>
          <CharString index="429">
            -103 callgsubr
            303 callsubr
            return
          </CharString>
          <CharString index="430">
            -103 callgsubr
            142 -107 callsubr
            return
          </CharString>
          <CharString index="431">
            96 callgsubr
            78 return
          </CharString>
          <CharString index="432">
            -106 callsubr
            42 59 -59 -88 callsubr
            return
          </CharString>
          <CharString index="433">
            -100 callsubr
            71 -105 callsubr
            return
          </CharString>
          <CharString index="434">
            -175 -245 rlineto
            77 hlineto
            145 203 rlineto
            23 return
          </CharString>
          <CharString index="435">
            rmoveto
            -106 callgsubr
            71 -105 callsubr
            return
          </CharString>
          <CharString index="436">
            rmoveto
            340 callgsubr
            return
          </CharString>
          <CharString index="437">
            -38 -18 -18 -38 hvcurveto
            -230 vlineto
            -38 18 -18 38 vhcurveto
            return
          </CharString>
          <CharString index="438">
            -419 vlineto
            -104 callgsubr
            return
          </CharString>
          <CharString index="439">
            -78 -79 vlineto
            -104 callgsubr
            return
          </CharString>
          <CharString index="440" raw="1">
            fb4e270a 0b  
          </CharString>
          <CharString index="441">
            -103 callgsubr
            135 return
          </CharString>
          <CharString index="442">
            309 37 callsubr
            -329 -59 return
          </CharString>
          <CharString index="443">
            -53 callsubr
            117 return
          </CharString>
          <CharString index="444">
            -99 callgsubr
            333 return
          </CharString>
          <CharString index="445">
            181 187 return
          </CharString>
          <CharString index="446">
            -59 233 169 callgsubr
            return
          </CharString>
          <CharString index="447">
            -130 164 -68 -164 -130 -59 130 return
          </CharString>
          <CharString index="448">
            -8 hlineto
            -77 154 rlineto
            48 -24 -22 20 -58 hhcurveto
            return
          </CharString>
          <CharString index="449">
            669 -69 -669 vlineto
            return
          </CharString>
          <CharString index="450">
            -26 -3 -2 -5 -26 hhcurveto
            -46 -64 67 hlineto
            53 return
          </CharString>
          <CharString index="451">
            332 37 callsubr
            -352 -59 352 hlineto
            return
          </CharString>
          <CharString index="452">
            254 callsubr
            -218 -59 75 return
          </CharString>
          <CharString index="453">
            -103 callgsubr
            18 return
          </CharString>
          <CharString index="454">
            vlineto
            10 12 2 20 28 vvcurveto
            return
          </CharString>
          <CharString index="455">
            161 callgsubr
            85 59 return
          </CharString>
          <CharString index="456">
            -89 callsubr
            -24 return
          </CharString>
          <CharString index="457">
            99 -105 callsubr
            return
          </CharString>
          <CharString index="458">
            -101 -88 callsubr
            return
          </CharString>
          <CharString index="459">
            -107 callsubr
            78 hlineto
            -338 return
          </CharString>
          <CharString index="460">
            hhcurveto
            -49 callgsubr
            186 return
          </CharString>
          <CharString index="461">
            vlineto
            -104 callgsubr
            216 vmoveto
            -59 return
          </CharString>
          <CharString index="462">
            143 59 rmoveto
            return
          </CharString>
        <CharString name=".notdef">
          106 0 vmoveto
          502 701 -502 hlineto
          51 -49 rmoveto
          400 -603 -400 hlineto
          200 253 rmoveto
          105 -209 rlineto
          60 hlineto
          -135 254 135 261 rlineto
          -60 hlineto
          -100 -206 rlineto
          -4 hlineto
          -105 206 rlineto
          -60 hlineto
          134 -255 -134 -260 rlineto
          60 hlineto
          100 209 rlineto
          endchar
        </CharString>
        <CharString name="A">
          -61 115 217 rmoveto
          -26 callsubr
        </CharString>
        <CharString name="AE">
          124 160 217 rmoveto
          104 292 rlineto
          -292 vlineto
          69 -158 329 callsubr
          -257 vlineto
          -226 -622 rlineto
          69 hlineto
          56 158 rlineto
          125 -158 240 59 hlineto
          endchar
        </CharString>
        <CharString name="Aacute">
          -61 295 780 69 callsubr
          -82 -436 rmoveto
          -26 callsubr
        </CharString>
        <CharString name="Abreve">
          -61 217 653 rmoveto
          -105 callgsubr
          48 -66 -40 -99 callgsubr
          -66 178 callsubr
          -66 -48 -100 callsubr
          -436 vmoveto
          -26 callsubr
        </CharString>
        <CharString name="Acircumflex">
          -61 166 737 54 callgsubr
          1 -436 rmoveto
          -26 callsubr
        </CharString>
        <CharString name="Adieresis">
          -61 298 737 279 callgsubr
          -176 84 279 callgsubr
          -7 -436 rmoveto
          -26 callsubr
        </CharString>
        <CharString name="Agrave">
          -61 191 653 143 callgsubr
          -14 -436 rmoveto
          -26 callsubr
        </CharString>
        <CharString name="Amacron">
          -61 284 711 233 callsubr
          -169 -436 rmoveto
          -26 callsubr
        </CharString>
        <CharString name="Aogonek">
          -61 115 217 rmoveto
          51 357 58 -357 rlineto
          43 -375 rmoveto
          324 callsubr
          1 hlineto
          -1 6 rlineto
          4 -1 vlineto
          -105 612 rlineto
          -109 hlineto
          -97 -622 rlineto
          69 hlineto
          23 158 rlineto
          126 hlineto
          26 -158 rlineto
          2 -25 100 callsubr
          hlineto
          endchar
        </CharString>
        <CharString name="Aring">
          -61 122 729 16 callsubr
          -21 -436 rmoveto
          -26 callsubr
        </CharString>
        <CharString name="Atilde">
          -61 103 664 rmoveto
          185 callsubr
          29 callgsubr
          vlineto
          12 -436 rmoveto
          -26 callsubr
        </CharString>
        <CharString name="B">
          -23 55 37 callsubr
          -622 197 -70 callsubr
          190 vlineto
          29 -14 13 -23 4 vhcurveto
          23 2 14 18 29 vvcurveto
          179 -99 callsubr
          10 -532 -64 callgsubr
          -107 229 107 -89 callsubr
          121 vmoveto
          -104 callsubr
          -107 216 107 -89 callsubr
          endchar
        </CharString>
        <CharString name="C">
          -59 305 438 rmoveto
          350 callgsubr
          -97 hlineto
          23 callsubr
          vlineto
          endchar
        </CharString>
        <CharString name="CR">
          -404 endchar
        </CharString>
        <CharString name="Cacute">
          -59 306 780 69 callsubr
          -79 -31 rmoveto
          23 callsubr
          69 105 -48 callgsubr
        </CharString>
        <CharString name="Ccaron">
          -59 222 653 18 callgsubr
          -6 -31 rmoveto
          23 callsubr
          69 105 -48 callgsubr
        </CharString>
        <CharString name="Ccedilla">
          -59 149 215 callsubr
          156 489 rmoveto
          350 callgsubr
          -97 hlineto
          23 callsubr
          vlineto
          endchar
        </CharString>
        <CharString name="D">
          -23 262 90 197 callsubr
        </CharString>
        <CharString name="Dcaron">
          -23 231 653 18 callgsubr
          118 -563 197 callsubr
        </CharString>
        <CharString name="Dcroat">
          156 callgsubr
        </CharString>
        <CharString name="E">
          -89 124 59 rmoveto
          235 64 callsubr
          vlineto
          endchar
        </CharString>
        <CharString name="Eacute">
          -89 296 780 69 callsubr
          -74 -359 rmoveto
          64 callsubr
          -171 hlineto
          endchar
        </CharString>
        <CharString name="Ecaron">
          -89 213 653 18 callgsubr
          -2 -359 rmoveto
          64 callsubr
          -171 hlineto
          endchar
        </CharString>
        <CharString name="Ecircumflex">
          -89 172 737 54 callgsubr
          4 -359 rmoveto
          64 callsubr
          -171 hlineto
          endchar
        </CharString>
        <CharString name="Edieresis">
          -89 125 737 279 callgsubr
          -1 -359 rmoveto
          64 callsubr
          -171 hlineto
          89 678 283 callsubr
        </CharString>
        <CharString name="Edotaccent">
          -89 226 739 rmoveto
          -92 -86 92 hlineto
          -102 -594 rmoveto
          235 64 callsubr
          vlineto
          endchar
        </CharString>
        <CharString name="Egrave">
          -89 202 653 143 callgsubr
          -16 -594 rmoveto
          235 64 callsubr
          vlineto
          endchar
        </CharString>
        <CharString name="Emacron">
          -89 289 728 233 callsubr
          -165 -611 rmoveto
          235 64 callsubr
          vlineto
          endchar
        </CharString>
        <CharString name="Eogonek">
          -89 235 -158 rmoveto
          96 callgsubr
          137 -171 340 callgsubr
          -233 -622 174 -25 100 callsubr
          hlineto
          endchar
        </CharString>
        <CharString name="Eth">
          156 callgsubr
        </CharString>
        <CharString name="Euro">
          -36 328 438 rmoveto
          350 callgsubr
          -97 -88 callsubr
          -145 -48 -58 48 -57 -48 -59 48 -146 135 callsubr
          105 -69 -94 -99 callgsubr
          -55 334 callsubr
          95 59 -95 57 95 58 -95 134 114 callgsubr
          -94 vlineto
          endchar
        </CharString>
        <CharString name="F">
          -101 298 312 callgsubr
          -243 -622 69 284 134 59 -134 220 vlineto
          endchar
        </CharString>
        <CharString name="G">
          -54 305 448 rmoveto
          95 -99 callsubr
          -97 hlineto
          53 callgsubr
          vlineto
          endchar
        </CharString>
        <CharString name="Gbreve">
          -54 129 37 callsubr
          53 callgsubr
          69 95 -99 callsubr
          16 158 71 callgsubr
        </CharString>
        <CharString name="H">
          -22 258 37 callsubr
          -282 -134 282 -69 -622 69 281 134 -281 69 622 vlineto
          endchar
        </CharString>
        <CharString name="I">
          175 callgsubr
          endchar
        </CharString>
        <CharString name="Iacute">
          175 callgsubr
          -61 31 202 callgsubr
          endchar
        </CharString>
        <CharString name="Icircumflex">
          175 callgsubr
          -161 31 228 callgsubr
        </CharString>
        <CharString name="Idieresis">
          -206 -35 653 223 callsubr
          -76 -115 339 callgsubr
          622 vlineto
          endchar
        </CharString>
        <CharString name="Idotaccent">
          175 callgsubr
          -81 47 rmoveto
          92 86 -92 hlineto
          endchar
        </CharString>
        <CharString name="Igrave">
          175 callgsubr
          -81 158 303 callgsubr
        </CharString>
        <CharString name="Imacron">
          175 callgsubr
          -153 48 297 callgsubr
        </CharString>
        <CharString name="Iogonek">
          -206 73 -158 rmoveto
          96 callgsubr
          700 -68 -622 2 -25 100 callsubr
          hlineto
          endchar
        </CharString>
        <CharString name="J">
          -103 15 192 rmoveto
          -113 -54 callsubr
          543 -69 -532 271 callsubr
          102 vlineto
          endchar
        </CharString>
        <CharString name="K">
          -59 55 hmoveto
          68 622 -68 hlineto
          280 hmoveto
          291 callsubr
        </CharString>
        <CharString name="L">
          -133 123 59 241 callgsubr
        </CharString>
        <CharString name="Lacute">
          -133 217 780 69 callsubr
          4 -594 241 callgsubr
        </CharString>
        <CharString name="Lcaron">
          -133 215 786 rmoveto
          89 callsubr
          85 -127 rlineto
          87 hlineto
          -7 -600 241 callgsubr
        </CharString>
        <CharString name="Lslash">
          -128 123 59 rmoveto
          229 vlineto
          97 45 rlineto
          59 vlineto
          -97 -45 rlineto
          275 -68 -306 vlineto
          -73 -34 rlineto
          -59 vlineto
          73 34 rlineto
          -257 211 59 vlineto
          endchar
        </CharString>
        <CharString name="M">
          71 274 135 rmoveto
          87 336 rlineto
          -471 59 622 -75 vlineto
          -108 -400 -107 400 rlineto
          -75 -622 59 471 hlineto
          87 -336 rlineto
          endchar
        </CharString>
        <CharString name="N">
          150 callsubr
          endchar
        </CharString>
        <CharString name="NULL">
          -404 endchar
        </CharString>
        <CharString name="Nacute">
          -27 161 653 202 callgsubr
          20 238 callgsubr
        </CharString>
        <CharString name="Ncaron">
          -27 149 653 rmoveto
          87 hlineto
          85 127 rlineto
          89 callsubr
          195 238 callgsubr
        </CharString>
        <CharString name="Ntilde">
          150 callsubr
          -85 31 rmoveto
          29 callgsubr
          11 vlineto
          185 callsubr
          endchar
        </CharString>
        <CharString name="O">
          -44 242 90 -42 callgsubr
          endchar
        </CharString>
        <CharString name="OE">
          113 242 299 callsubr
          -62 -103 callgsubr
          442 35 callgsubr
          79 -473 329 callsubr
          -223 -19 vlineto
          13 -12 -19 6 -26 hhcurveto
          -76 146 callsubr
          77 hlineto
          26 18 6 13 12 hvcurveto
          -19 230 59 vlineto
          endchar
        </CharString>
        <CharString name="Oacute">
          -44 300 780 69 callsubr
          40 -45 callgsubr
          endchar
        </CharString>
        <CharString name="Ocircumflex">
          -44 179 737 54 callgsubr
          115 -45 callgsubr
          endchar
        </CharString>
        <CharString name="Odieresis">
          -44 136 737 279 callgsubr
          106 -45 callgsubr
          -7 115 283 callsubr
        </CharString>
        <CharString name="Ograve">
          -44 200 653 143 callgsubr
          104 -45 callgsubr
          endchar
        </CharString>
        <CharString name="Ohungarumlaut">
          -44 256 653 133 callsubr
          86 -45 callgsubr
          endchar
        </CharString>
        <CharString name="Omacron">
          -44 298 711 233 callsubr
          -56 -45 callgsubr
          endchar
        </CharString>
        <CharString name="Oslash">
          -34 248 87 rmoveto
          -26 -5 -5 -27 vhcurveto
          -63 hlineto
          -12 -8 1 4 -4 hvcurveto
          119 372 rlineto
          -126 102 203 callsubr
          63 hlineto
          13 7 -1 -4 5 hvcurveto
          -119 -372 rlineto
          193 453 rmoveto
          -48 hlineto
          -7 -22 rlineto
          1 -7 -8 1 -9 hhcurveto
          298 callsubr
          -464 vlineto
          -23 5 -18 10 -13 vhcurveto
          -15 -45 rlineto
          48 hlineto
          7 22 rlineto
          -1 7 8 -1 9 hhcurveto
          102 -105 callsubr
          464 vlineto
          23 -5 18 -10 13 vhcurveto
          endchar
        </CharString>
        <CharString name="Otilde">
          -44 116 664 rmoveto
          185 callsubr
          29 callgsubr
          vlineto
          126 -45 callgsubr
          endchar
        </CharString>
        <CharString name="P">
          -59 247 340 -64 callgsubr
          -93 254 93 -89 callsubr
          -192 90 339 callgsubr
          250 113 -70 callsubr
          214 -48 callgsubr
        </CharString>
        <CharString name="Q">
          -44 118 532 rmoveto
          62 callsubr
          -442 -99 callgsubr
          -62 -103 callgsubr
          195 -187 rmoveto
          -65 98 rlineto
          42 5 20 26 47 vvcurveto
          190 callgsubr
          -102 146 callsubr
          53 hlineto
          63 -97 rlineto
          endchar
        </CharString>
        <CharString name="R">
          -40 123 563 56 callsubr
        </CharString>
        <CharString name="Racute">
          -40 307 780 69 callsubr
          -86 -90 56 callsubr
        </CharString>
        <CharString name="Rcaron">
          -40 224 653 18 callgsubr
          -14 -90 56 callsubr
        </CharString>
        <CharString name="S">
          -77 218 90 81 callsubr
        </CharString>
        <CharString name="Sacute">
          -77 128 653 202 callgsubr
          12 75 callgsubr
        </CharString>
        <CharString name="Scaron">
          -77 121 653 rmoveto
          87 hlineto
          85 127 rlineto
          89 callsubr
          182 75 callgsubr
        </CharString>
        <CharString name="T">
          -126 273 622 218 callgsubr
        </CharString>
        <CharString name="Tcaron">
          -126 183 653 18 callgsubr
          177 -31 218 callgsubr
        </CharString>
        <CharString name="Thorn">
          -59 247 215 -64 callgsubr
          -93 254 93 -89 callsubr
          -124 90 rmoveto
          125 -68 -622 68 125 113 -70 callsubr
          214 -48 callgsubr
        </CharString>
        <CharString name="U">
          -40 244 37 callsubr
          -532 vlineto
          -9 callsubr
          vlineto
          endchar
        </CharString>
        <CharString name="Uacute">
          -40 310 780 69 callsubr
          32 -31 rmoveto
          -532 vlineto
          -9 callsubr
          vlineto
          endchar
        </CharString>
        <CharString name="Ucircumflex">
          -40 181 737 54 callgsubr
          115 -31 rmoveto
          -532 vlineto
          -9 callsubr
          vlineto
          endchar
        </CharString>
        <CharString name="Udieresis">
          -40 138 737 279 callgsubr
          106 -563 rmoveto
          -9 callsubr
          -68 vlineto
          -18 115 283 callsubr
        </CharString>
        <CharString name="Ugrave">
          -40 213 653 143 callgsubr
          93 -31 rmoveto
          -532 vlineto
          -9 callsubr
          vlineto
          endchar
        </CharString>
        <CharString name="Uhungarumlaut">
          -40 256 653 133 callsubr
          88 -563 rmoveto
          -9 callsubr
          -68 vlineto
          endchar
        </CharString>
        <CharString name="Umacron">
          -40 301 711 233 callsubr
          -57 -31 rmoveto
          -532 vlineto
          -9 callsubr
          vlineto
          endchar
        </CharString>
        <CharString name="Uogonek">
          -40 244 37 callsubr
          -532 -99 callgsubr
          -62 -103 callgsubr
          532 -68 -543 -100 callsubr
          25 -25 100 callsubr
          -78 hlineto
          324 callsubr
          11 -105 callsubr
          543 vlineto
          endchar
        </CharString>
        <CharString name="Uring">
          -40 137 729 16 callsubr
          93 -31 rmoveto
          -532 vlineto
          -9 callsubr
          vlineto
          endchar
        </CharString>
        <CharString name="V">
          -85 245 37 callsubr
          -86 -574 -85 574 rlineto
          -69 hlineto
          100 -622 rlineto
          109 hlineto
          100 622 rlineto
          endchar
        </CharString>
        <CharString name="W">
          145 470 37 callsubr
          -76 -574 -79 574 rlineto
          -82 hlineto
          -79 -574 -75 574 rlineto
          -69 hlineto
          91 -622 rlineto
          104 hlineto
          69 493 70 -493 rlineto
          104 hlineto
          91 622 rlineto
          endchar
        </CharString>
        <CharString name="X">
          -70 203 318 rmoveto
          116 304 rlineto
          -74 hlineto
          -78 -242 -78 242 rlineto
          -74 hlineto
          116 -304 -126 -318 rlineto
          74 hlineto
          88 253 88 -253 rlineto
          74 hlineto
          endchar
        </CharString>
        <CharString name="Y">
          -85 245 622 240 callsubr
        </CharString>
        <CharString name="Yacute">
          -85 291 780 69 callsubr
          52 239 callgsubr
        </CharString>
        <CharString name="Ydieresis">
          -85 295 737 279 callgsubr
          -176 84 279 callgsubr
          126 239 callgsubr
        </CharString>
        <CharString name="Z">
          -131 268 623 rmoveto
          -253 -59 158 callgsubr
          endchar
        </CharString>
        <CharString name="Zacute">
          -131 276 780 69 callsubr
          -163 -89 rmoveto
          158 callgsubr
          59 -253 vlineto
          endchar
        </CharString>
        <CharString name="Zcaron">
          -131 182 653 18 callgsubr
          173 -30 rmoveto
          -253 -59 158 callgsubr
          endchar
        </CharString>
        <CharString name="Zdotaccent">
          -131 190 739 rmoveto
          -92 -86 92 hlineto
          78 -30 rmoveto
          -253 -59 158 callgsubr
          endchar
        </CharString>
        <CharString name="a">
          -76 140 59 -49 callsubr
          -33 69 485 vlineto
          endchar
        </CharString>
        <CharString name="aacute">
          -76 298 643 69 callsubr
          -60 -457 -43 callgsubr
          34 393 rmoveto
          -44 callsubr
          -33 69 485 -69 vlineto
          endchar
        </CharString>
        <CharString name="abreve">
          -76 140 59 -43 callgsubr
          34 393 rmoveto
          -44 callsubr
          -33 69 485 -69 vlineto
          12 158 71 callgsubr
        </CharString>
        <CharString name="acircumflex">
          -76 166 600 54 callgsubr
          26 -457 -43 callgsubr
          34 393 rmoveto
          -44 callsubr
          -33 69 485 -69 vlineto
          endchar
        </CharString>
        <CharString name="acute">
          -4 118 516 202 callgsubr
          endchar
        </CharString>
        <CharString name="adieresis">
          -76 116 625 279 callgsubr
          24 -482 -43 callgsubr
          34 393 rmoveto
          -44 callsubr
          -33 69 485 -69 vlineto
          -10 140 283 callsubr
        </CharString>
        <CharString name="ae">
          105 145 59 -51 callsubr
          76 vlineto
          105 42 rlineto
          -119 vlineto
          -23 -2 -10 -7 -22 hhcurveto
          184 367 rmoveto
          -102 callgsubr
          -117 -112 117 -107 callsubr
          -31 -207 rmoveto
          338 callsubr
          hlineto
          -98 callgsubr
          -83 hlineto
          293 callgsubr
          -94 69 83 97 callgsubr
          22 10 -8 -22 2 hvcurveto
          -125 vlineto
          -174 -71 rlineto
          -121 187 callsubr
          endchar
        </CharString>
        <CharString name="agrave">
          -76 221 516 143 callgsubr
          -19 -457 -49 callsubr
          -33 69 485 vlineto
          endchar
        </CharString>
        <CharString name="amacron">
          -76 278 608 233 callsubr
          -138 -491 -49 callsubr
          -33 69 485 vlineto
          endchar
        </CharString>
        <CharString name="ampersand">
          14 139 59 -51 callsubr
          87 vlineto
          35 9 11 22 15 vhcurveto
          27 19 157 -196 rlineto
          -1 -5 -6 -1 -9 hhcurveto
          -175 473 203 callsubr
          52 -89 callsubr
          -88 vlineto
          -44 -18 -20 -39 -27 vhcurveto
          -9 -7 rlineto
          -23 27 -25 31 30 vvcurveto
          347 -469 rmoveto
          -85 108 rlineto
          6 vlineto
          145 -56 -79 vlineto
          -117 149 24 17 rlineto
          45 29 24 34 70 vvcurveto
          99 330 callgsubr
          -103 vlineto
          -48 33 -42 33 -43 vhcurveto
          -34 -26 rlineto
          -39 -27 -13 -21 -38 vvcurveto
          -116 -100 callsubr
          192 hlineto
          21 17 4 9 13 hvcurveto
          38 -48 rlineto
          endchar
        </CharString>
        <CharString name="aogonek">
          -76 140 59 -43 callgsubr
          43 -217 307 callsubr
          -33 hlineto
          -44 callsubr
          -33 3 -25 -8 vlineto
          122 callgsubr
          hlineto
          endchar
        </CharString>
        <CharString name="approxequal">
          68 317 386 rmoveto
          99 callsubr
          -170 vmoveto
          99 callsubr
          endchar
        </CharString>
        <CharString name="aring">
          -76 124 603 16 callsubr
          2 -468 -49 callsubr
          -33 69 485 vlineto
          endchar
        </CharString>
        <CharString name="asciicircum">
          39 180 671 rmoveto
          -135 -344 rlineto
          72 hlineto
          104 277 105 -277 rlineto
          72 hlineto
          -135 344 rlineto
          endchar
        </CharString>
        <CharString name="asciitilde">
          68 318 216 rmoveto
          99 callsubr
          endchar
        </CharString>
        <CharString name="asterisk">
          -102 287 500 rmoveto
          -20 59 -38 -12 -22 -7 -17 -8 -13 -7 rlinecurve
          3 14 2 19 23 vvcurveto
          41 -62 -41 vlineto
          -23 2 -19 3 -15 vhcurveto
          -13 7 -17 9 -22 7 -39 13 rcurveline
          -19 -59 39 -13 22 -7 19 -4 14 -2 rlinecurve
          -11 -10 -13 -14 -13 -18 -25 -33 rcurveline
          51 -37 24 33 14 19 9 17 6 13 rlinecurve
          6 -13 10 -17 13 -18 24 -34 rcurveline
          50 37 -24 33 -13 19 -13 14 -11 10 rlinecurve
          14 2 19 3 21 7 rrcurveto
          endchar
        </CharString>
        <CharString name="at">
          247 229 348 rmoveto
          -188 -100 callsubr
          30 hlineto
          31 27 13 36 4 hvcurveto
          -49 126 -70 callsubr
          325 -99 callsubr
          -362 -88 callsubr
          -467 -100 callsubr
          298 61 -277 -103 callgsubr
          440 vlineto
          26 5 6 26 vhcurveto
          321 hlineto
          26 5 -6 -26 hvcurveto
          -300 -99 callgsubr
          -45 287 -68 -34 hlineto
          24 -8 -21 10 -26 hhcurveto
          -30 -88 callsubr
          69 -11 203 callsubr
          30 hlineto
          24 10 -9 -27 hvcurveto
          -156 236 callsubr
          -30 -103 callgsubr
          endchar
        </CharString>
        <CharString name="atilde">
          -76 140 59 -43 callgsubr
          34 393 rmoveto
          -44 callsubr
          -33 69 485 -69 vlineto
          8 139 rmoveto
          -10 vlineto
          -21 -5 -4 -14 vhcurveto
          -24 -25 35 -42 hhcurveto
          -6 hlineto
          -55 -17 -29 -47 hvcurveto
          -14 62 11 vlineto
          185 callsubr
          5 hlineto
          56 15 30 46 hvcurveto
          14 vlineto
          endchar
        </CharString>
        <CharString name="b">
          -76 219 299 callsubr
          -40 hlineto
          -24 -10 9 27 hvcurveto
          296 vlineto
          27 10 9 24 27 callgsubr
          -50 90 rmoveto
          236 callgsubr
          216 -69 -669 69 33 vlineto
          -24 8 20 -9 27 hhcurveto
          40 -105 callsubr
          328 -48 callgsubr
        </CharString>
        <CharString name="backslash">
          -19 44 699 rmoveto
          264 -835 rlineto
          69 hlineto
          -264 835 rlineto
          endchar
        </CharString>
        <CharString name="bar">
          55 719 rmoveto
          -817 69 817 vlineto
          endchar
        </CharString>
        <CharString name="braceleft">
          -133 180 689 rmoveto
          24 8 9 26 vhcurveto
          50 59 -83 hlineto
          -56 -13 -31 -47 hvcurveto
          -249 vlineto
          -81 -27 -36 -61 vhcurveto
          -19 -58 19 hlineto
          61 27 -36 -80 hvcurveto
          -251 vlineto
          -48 13 -30 56 vhcurveto
          83 59 -50 hlineto
          -26 -8 9 24 hvcurveto
          263 vlineto
          68 -24 44 -51 7 vhcurveto
          51 6 24 44 70 vvcurveto
          endchar
        </CharString>
        <CharString name="braceright">
          -133 90 428 rmoveto
          -70 24 -44 51 -6 vhcurveto
          -51 -7 -24 -44 -68 vvcurveto
          -263 vlineto
          -24 -8 -9 -26 vhcurveto
          -50 -59 83 hlineto
          56 13 30 48 hvcurveto
          251 vlineto
          80 27 36 61 vhcurveto
          19 58 -19 hlineto
          -61 -27 36 81 hvcurveto
          249 vlineto
          47 -13 31 -56 vhcurveto
          -83 -59 50 hlineto
          26 8 -9 -24 hvcurveto
          endchar
        </CharString>
        <CharString name="bracketleft">
          -95 233 722 rmoveto
          59 -170 -948 170 59 -101 830 vlineto
          endchar
        </CharString>
        <CharString name="bracketright">
          -95 223 781 rmoveto
          -170 -59 101 -830 -101 -59 170 hlineto
          endchar
        </CharString>
        <CharString name="breve">
          -4 264 643 71 callgsubr
        </CharString>
        <CharString name="brokenbar">
          55 247 rmoveto
          -345 69 345 vlineto
          127 vmoveto
          345 -69 -345 vlineto
          endchar
        </CharString>
        <CharString name="bullet">
          -8 71 321 rmoveto
          -70 57 -57 70 70 57 57 70 70 -57 57 -70 -70 -57 -57 -70 vhcurveto
          endchar
        </CharString>
        <CharString name="c">
          -79 290 341 130 callsubr
        </CharString>
        <CharString name="cacute">
          -79 291 643 69 callsubr
          -74 132 callgsubr
        </CharString>
        <CharString name="caron">
          -4 156 516 rmoveto
          87 hlineto
          85 127 rlineto
          89 callsubr
          endchar
        </CharString>
        <CharString name="ccaron">
          -79 210 516 18 callgsubr
          -4 132 callgsubr
        </CharString>
        <CharString name="ccedilla">
          -79 136 215 callsubr
          154 392 130 callsubr
        </CharString>
        <CharString name="cedilla">
          -4 208 215 callsubr
          endchar
        </CharString>
        <CharString name="cent">
          -79 290 341 rmoveto
          65 -99 callsubr
          -10 76 -65 -76 -17 hlineto
          322 callgsubr
          -75 65 75 10 -105 callsubr
          65 -69 -54 -99 callgsubr
          -50 -76 callgsubr
          50 hlineto
          26 5 -5 -26 hvcurveto
          -54 vlineto
          endchar
        </CharString>
        <CharString name="circumflex">
          -4 71 516 228 callgsubr
        </CharString>
        <CharString name="colon">
          -262 30 hmoveto
          301 callgsubr
          261 vmoveto
          301 callgsubr
          endchar
        </CharString>
        <CharString name="comma">
          -262 213 callgsubr
          endchar
        </CharString>
        <CharString name="commaaccent">
          -4 160 -51 148 callgsubr
        </CharString>
        <CharString name="copyright">
          278 651 342 rmoveto
          185 -63 95 -143 vhcurveto
          -190 hlineto
          -143 -63 -95 -185 hvcurveto
          -71 vlineto
          -185 63 -86 143 vhcurveto
          190 hlineto
          143 63 86 185 hvcurveto
          -394 -211 rmoveto
          -111 -30 92 118 hvcurveto
          73 vlineto
          118 30 103 111 vhcurveto
          186 hlineto
          111 30 -103 -118 hvcurveto
          -73 vlineto
          -118 -30 -92 -111 vhcurveto
          -37 180 -64 callgsubr
          -50 -103 callgsubr
          155 59 callsubr
          -24 69 35 330 callgsubr
          -177 180 callgsubr
          -105 callsubr
          35 -69 vlineto
          endchar
        </CharString>
        <CharString name="currency">
          50 207 170 -51 callsubr
          195 35 callgsubr
          -195 -99 callgsubr
          99 237 rmoveto
          15 -2 13 -4 10 vhcurveto
          41 41 -46 46 -48 -47 rlineto
          1 -6 -7 0 -7 hhcurveto
          -102 hlineto
          -10 -9 -1 -2 -8 hvcurveto
          -49 49 -46 -46 47 -47 rlineto
          -3 -9 -1 -11 -12 vvcurveto
          -217 vlineto
          -12 1 -10 3 -9 vhcurveto
          -47 -46 46 -46 48 47 rlineto
          -2 8 9 -1 11 hhcurveto
          102 hlineto
          8 7 1 1 7 hvcurveto
          46 -46 46 46 -41 40 rlineto
          4 10 2 13 14 vvcurveto
          endchar
        </CharString>
        <CharString name="d">
          -76 218 callsubr
          610 rmoveto
          -216 vlineto
          219 callgsubr
          vlineto
          endchar
        </CharString>
        <CharString name="dagger">
          -66 333 458 rmoveto
          340 callsubr
          -509 68 509 130 hlineto
          endchar
        </CharString>
        <CharString name="daggerdbl">
          -46 343 399 rmoveto
          59 340 callsubr
          -333 -130 -59 130 -164 68 164 130 59 -130 333 vlineto
          endchar
        </CharString>
        <CharString name="dcaron">
          -50 218 callsubr
          394 rmoveto
          219 callgsubr
          -69 vlineto
          114 hmoveto
          -160 27 vlineto
          35 121 rlineto
          39 vlineto
          endchar
        </CharString>
        <CharString name="dcroat">
          -71 145 59 -43 callgsubr
          148 544 rmoveto
          -45 66 -69 -66 -85 -59 85 -92 hlineto
          -44 callsubr
          -33 69 544 45 vlineto
          endchar
        </CharString>
        <CharString name="degree">
          -48 292 545 rmoveto
          52 -25 25 -52 vhcurveto
          -80 hlineto
          -52 -25 -25 -52 hvcurveto
          -115 vlineto
          -52 25 -25 52 vhcurveto
          80 hlineto
          52 25 25 52 hvcurveto
          -64 9 rmoveto
          -25 -102 callsubr
          -44 hlineto
          -26 -5 5 25 hvcurveto
          97 vlineto
          25 -103 callsubr
          44 hlineto
          26 5 -5 -25 hvcurveto
          endchar
        </CharString>
        <CharString name="dieresis">
          -4 68 541 223 callsubr
          endchar
        </CharString>
        <CharString name="divide">
          -24 25 281 346 callgsubr
          130 150 rmoveto
          -80 70 80 vlineto
          -70 -280 rmoveto
          -80 70 80 vlineto
          endchar
        </CharString>
        <CharString name="dollar">
          -77 140 350 rmoveto
          54 callsubr
          -11 75 -65 -75 -12 -88 callsubr
          -173 -100 callsubr
          68 -89 callsubr
          -170 -99 callgsubr
          -45 -103 callgsubr
          85 -69 -96 -100 callsubr
          10 -75 65 75 12 -105 callsubr
          192 -48 callgsubr
        </CharString>
        <CharString name="dotaccent">
          -4 154 536 rmoveto
          92 86 -92 hlineto
          endchar
        </CharString>
        <CharString name="dotlessi">
          168 callsubr
          endchar
        </CharString>
        <CharString name="dvBH_N">
          293 540 -19 callgsubr
          -257 -258 -51 callgsubr
          157 59 rmoveto
          -88 142 hlineto
          -47 callgsubr
          88 -185 326 callsubr
          269 108 59 -258 354 callsubr
          337 59 vlineto
          endchar
        </CharString>
        <CharString name="dvB_N">
          178 425 -19 callgsubr
          -210 -289 -75 callsubr
          34 134 rmoveto
          153 callgsubr
          108 59 -258 vlineto
          -104 callgsubr
          -285 216 rmoveto
          -59 622 59 vlineto
          endchar
        </CharString>
        <CharString name="dvCH_N">
          97 287 -242 rmoveto
          30 callsubr
          -45 727 -85 callsubr
          -338 59 rmoveto
          0 callgsubr
          156 -57 -80 88 callgsubr
          59 -99 69 215 15 101 callgsubr
          139 59 vlineto
          endchar
        </CharString>
        <CharString name="dvC_N">
          152 419 46 callsubr
          -255 rmoveto
          -80 callgsubr
          -57 -103 callgsubr
          40 callsubr
          26 5 4 27 1 vhcurveto
          40 55 callgsubr
          94 78 callsubr
          -279 216 rmoveto
          -59 616 59 vlineto
          endchar
        </CharString>
        <CharString name="dvDDH_DDHA">
          -27 282 161 callgsubr
          115 59 -417 296 callgsubr
          -189 -86 callsubr
          -186 321 callgsubr
          41 -99 callsubr
          -91 -59 70 -89 callsubr
          -19 221 callsubr
          164 -107 callsubr
          114 186 callgsubr
          endchar
        </CharString>
        <CharString name="dvDD_GA">
          -53 281 319 callsubr
          -391 -59 232 -78 -73 vlineto
          -10 callgsubr
          -30 8 -21 17 -13 vhcurveto
          -66 154 callgsubr
          53 -170 69 183 vlineto
          18 13 9 22 31 vvcurveto
          -61 callgsubr
          endchar
        </CharString>
        <CharString name="dvDD_N">
          -53 190 -242 rmoveto
          30 callsubr
          -286 864 rmoveto
          -59 232 -78 -73 vlineto
          -10 callgsubr
          -98 callsubr
          53 vhcurveto
          66 -57 -47 88 callgsubr
          26 -99 69 227 hlineto
          19 13 10 22 32 48 callsubr
        </CharString>
        <CharString name="dvDH_N">
          236 480 46 callsubr
          -255 rmoveto
          -74 callgsubr
          151 195 callgsubr
          121 59 -271 354 callsubr
          350 59 vlineto
          endchar
        </CharString>
        <CharString name="dvD_N">
          -57 230 -138 rmoveto
          69 404 144 callsubr
          -67 -64 vlineto
          -104 callgsubr
          -37 69 26 347 callgsubr
          hlineto
          73 -126 rmoveto
          182 callsubr
        </CharString>
        <CharString name="dvGH_N">
          205 361 305 callgsubr
          60 -258 hlineto
          -91 callsubr
          268 395 rmoveto
          59 -649 -59 82 vlineto
          256 callsubr
          -136 -86 callsubr
          -144 -100 callsubr
          147 78 callsubr
          -235 vlineto
          -80 callgsubr
          -110 105 callgsubr
          4 27 1 vhcurveto
          endchar
        </CharString>
        <CharString name="dvG_N">
          296 543 46 callsubr
          -269 rmoveto
          259 callgsubr
          -248 -269 -62 callsubr
          547 485 rmoveto
          -751 -59 -71 callgsubr
          447 vlineto
          endchar
        </CharString>
        <CharString name="dvJH_N">
          303 459 305 callgsubr
          60 -258 hlineto
          -91 callsubr
          -167 258 rmoveto
          137 446 59 -758 311 callsubr
          -98 vlineto
          -59 callgsubr
          91 -108 hlineto
          259 callgsubr
          -82 -244 vlineto
          45 callgsubr
          endchar
        </CharString>
        <CharString name="dvJ_N">
          291 535 -19 callgsubr
          250 59 rmoveto
          -515 123 callsubr
          97 vlineto
          -47 callsubr
          64 callgsubr
          121 vlineto
          -745 196 rmoveto
          -59 745 59 vlineto
          endchar
        </CharString>
        <CharString name="dvKH_N">
          398 624 46 callsubr
          -209 rmoveto
          65 callsubr
          -3 callgsubr
          139 59 -289 vlineto
          -104 callgsubr
          -484 216 rmoveto
          -59 172 vlineto
          -73 callgsubr
          588 59 hlineto
          endchar
        </CharString>
        <CharString name="dvK_N">
          277 553 396 rmoveto
          -228 114 callsubr
          197 -107 callsubr
          238 167 rmoveto
          59 -751 -59 239 -392 vlineto
          -26 -8 -8 -95 callgsubr
          -48 callsubr
          -72 callgsubr
          -87 69 362 -26 callgsubr
          72 hlineto
          -47 callsubr
          -219 326 callsubr
          239 109 59 -411 vlineto
          336 callsubr
          vlineto
          endchar
        </CharString>
        <CharString name="dvM_N">
          300 533 168 171 callgsubr
          529 190 rmoveto
          59 -744 -59 553 -131 331 callsubr
          -196 326 callsubr
          216 86 callgsubr
          -196 -77 callgsubr
          216 122 59 -122 131 vlineto
          endchar
        </CharString>
        <CharString name="dvMatraI.a33">
          1072 813 rmoveto
          -938 -97 callgsubr
          896 -79 callgsubr
        </CharString>
        <CharString name="dvMatraI.a34">
          1094 813 rmoveto
          -960 -97 callgsubr
          918 -79 callgsubr
        </CharString>
        <CharString name="dvMatraI.a35">
          1115 813 rmoveto
          -981 -97 callgsubr
          939 -79 callgsubr
        </CharString>
        <CharString name="dvMatraI.a36">
          1137 813 rmoveto
          -1003 -97 callgsubr
          961 -79 callgsubr
        </CharString>
        <CharString name="dvMatraI.a37">
          1159 813 rmoveto
          -1025 -97 callgsubr
          983 -79 callgsubr
        </CharString>
        <CharString name="dvMatraI.a38">
          1180 813 rmoveto
          -1046 -97 callgsubr
          1004 -79 callgsubr
        </CharString>
        <CharString name="dvMatraI.a39">
          1202 813 rmoveto
          -1068 -97 callgsubr
          1026 -79 callgsubr
        </CharString>
        <CharString name="dvMatraI.a40">
          1223 813 rmoveto
          -1089 -97 callgsubr
          1047 -79 callgsubr
        </CharString>
        <CharString name="dvMatraI.a41">
          1245 813 rmoveto
          -1111 -97 callgsubr
          1069 -79 callgsubr
        </CharString>
        <CharString name="dvMatraI.a42">
          1266 813 rmoveto
          -1132 -97 callgsubr
          1090 -79 callgsubr
        </CharString>
        <CharString name="dvMatraI.a43">
          1288 813 rmoveto
          -1154 -97 callgsubr
          1112 -79 callgsubr
        </CharString>
        <CharString name="dvMatraI.a44">
          1310 813 rmoveto
          -1176 -97 callgsubr
          1134 -79 callgsubr
        </CharString>
        <CharString name="dvMatraI.a45">
          1331 813 rmoveto
          -1197 -97 callgsubr
          1155 -79 callgsubr
        </CharString>
        <CharString name="dvMatraI.a46">
          1353 813 rmoveto
          -1219 -97 callgsubr
          1177 -79 callgsubr
        </CharString>
        <CharString name="dvMatraI.a47">
          1374 813 rmoveto
          -1240 -97 callgsubr
          1198 -79 callgsubr
        </CharString>
        <CharString name="dvMatraI.a48">
          1396 813 rmoveto
          -1262 -97 callgsubr
          1220 -79 callgsubr
        </CharString>
        <CharString name="dvMatraI.a49">
          1417 813 rmoveto
          -1283 -97 callgsubr
          1241 -79 callgsubr
        </CharString>
        <CharString name="dvMatraI.a50">
          1439 813 rmoveto
          -1305 -97 callgsubr
          1263 -79 callgsubr
        </CharString>
        <CharString name="dvNG_GA">
          -53 273 308 -31 callgsubr
          -293 228 rmoveto
          -59 232 -78 -73 vlineto
          -10 callgsubr
          -30 8 -21 17 -13 vhcurveto
          -66 154 callgsubr
          53 -170 69 183 vlineto
          18 13 9 22 31 48 callsubr
        </CharString>
        <CharString name="dvNG_MA">
          119 358 407 rmoveto
          -73 -86 73 hlineto
          50 -247 rmoveto
          -135 165 hlineto
          -98 callgsubr
          -54 -103 callgsubr
          46 -107 callsubr
          123 137 145 hlineto
          145 59 rmoveto
          -573 -59 214 -78 -75 -88 callsubr
          -68 -100 callsubr
          54 -89 callsubr
          -88 -23 callgsubr
          48 -69 -59 -100 callsubr
          68 hlineto
          10 9 1 2 8 hvcurveto
          -129 69 91 135 -141 69 689 76 vlineto
          endchar
        </CharString>
        <CharString name="dvNY_CA">
          298 722 37 callsubr
          -742 -59 598 117 callgsubr
          -204 -59 71 hlineto
          -5 -5 -3 -8 -13 vvcurveto
          -67 -125 73 vlineto
          4 callsubr
          125 -117 107 callgsubr
        </CharString>
        <CharString name="dvN_N">
          258 515 -19 callgsubr
          -260 -258 -94 callgsubr
          497 59 rmoveto
          -578 -45 callsubr
          86 callgsubr
          64 callgsubr
          108 vlineto
          -712 196 rmoveto
          -59 712 59 vlineto
          endchar
        </CharString>
        <CharString name="dvPH_N">
          309 222 -37 callgsubr
          334 -137 -21 callsubr
          237 137 rmoveto
          59 -753 -59 68 -406 vlineto
          172 callsubr
          108 59 -410 vlineto
          -53 callsubr
          87 vlineto
          endchar
        </CharString>
        <CharString name="dvP_N">
          140 296 305 callgsubr
          60 -258 hlineto
          -91 callsubr
          268 395 rmoveto
          59 -584 -59 68 -406 -14 callgsubr
          78 callsubr
          -235 vlineto
          -80 callgsubr
          -45 -103 callgsubr
          395 vlineto
          endchar
        </CharString>
        <CharString name="dvSHA_MatraVocalicR">
          76 121 531 159 callgsubr
          305 -342 rmoveto
          529 74 59 -143 -278 -95 93 callgsubr
          141 -191 -3 hlineto
          -51 -25 -82 callgsubr
          -58 58 callsubr
          endchar
        </CharString>
        <CharString name="dvSH_VA.aSimp">
          283 126 623 rmoveto
          -92 callgsubr
          495 -1 rmoveto
          -386 -59 242 -392 hlineto
          -26 -8 -8 -95 callgsubr
          -249 145 callgsubr
        </CharString>
        <CharString name="dvS_N">
          309 555 168 -94 callgsubr
          178 59 rmoveto
          -259 -88 callsubr
          -62 -116 vlineto
          -78 callsubr
          449 59 -752 -59 211 hlineto
          -100 callgsubr
          281 -128 326 callsubr
          269 109 vlineto
          endchar
        </CharString>
        <CharString name="dvTH_N">
          222 466 46 callsubr
          -255 rmoveto
          32 callgsubr
          163 195 callgsubr
          111 59 -261 354 callsubr
          340 59 vlineto
          endchar
        </CharString>
        <CharString name="dvTTH_N">
          -36 207 -242 rmoveto
          30 callsubr
          -32 332 -64 callgsubr
          -65 -76 callgsubr
          65 -89 callsubr
          -271 227 rmoveto
          141 callgsubr
          166 59 hlineto
          endchar
        </CharString>
        <CharString name="dvTTH_TTHA">
          -36 267 280 -64 callgsubr
          -81 -103 callgsubr
          115 -107 callsubr
          81 -89 callsubr
          -448 vmoveto
          -104 callsubr
          -81 -103 callgsubr
          116 -107 callsubr
          81 -89 callsubr
          104 500 rmoveto
          59 -391 -59 178 -78 -24 vlineto
          -104 callgsubr
          -137 -100 callsubr
          24 -37 -24 -88 callsubr
          -138 -100 callsubr
          123 -105 callsubr
          138 349 callgsubr
          37 30 -105 callsubr
          137 349 callgsubr
          78 hlineto
          endchar
        </CharString>
        <CharString name="dvTT_GA">
          -70 282 426 201 callgsubr
          -27 7 -21 14 -13 vhcurveto
          -69 154 callgsubr
          53 -170 69 187 vlineto
          15 13 7 21 28 vvcurveto
          -11 callgsubr
        </CharString>
        <CharString name="dvTT_N">
          -70 200 -215 rmoveto
          69 234 hlineto
          13 13 7 20 27 173 callsubr
          -98 callsubr
          53 vhcurveto
          66 -57 -47 88 callgsubr
          26 hlineto
          73 -126 rmoveto
          182 callsubr
        </CharString>
        <CharString name="dvT_KH_NA">
          712 825 2 callgsubr
          -1146 -59 373 hlineto
          -33 callsubr
          334 callgsubr
          -313 -12 callgsubr
          288 255 callgsubr
          -333 hlineto
          72 callsubr
          537 151 callsubr
          -189 vlineto
          -42 callsubr
          19 13 5 12 7 hvcurveto
          -39 6 25 -19 46 hhcurveto
          17 callsubr
        </CharString>
        <CharString name="dvT_N">
          170 397 -19 callgsubr
          257 59 rmoveto
          -470 -39 callsubr
          93 265 callsubr
          128 vlineto
          -614 196 rmoveto
          -59 614 59 vlineto
          endchar
        </CharString>
        <CharString name="dvT_R_KA">
          307 731 312 callgsubr
          -751 -59 443 -392 vlineto
          -26 -8 -8 -95 callgsubr
          -143 -8 vlineto
          -77 154 rlineto
          -15 callsubr
          23 -46 hlineto
          -106 callgsubr
          -101 callgsubr
        </CharString>
        <CharString name="dvT_S_NA">
          636 916 485 rmoveto
          205 callsubr
          -62 -116 vlineto
          -78 callsubr
          429 hlineto
          -157 -395 -94 callgsubr
          301 196 rmoveto
          -1080 85 callgsubr
          281 -128 33 callsubr
        </CharString>
        <CharString name="dvV_N">
          135 382 46 callsubr
          -256 rmoveto
          -24 -8 -9 -95 callgsubr
          -48 callsubr
          54 hlineto
          30 18 7 15 10 hvcurveto
          -15 13 21 -7 28 hhcurveto
          -3 callgsubr
          108 59 -258 vlineto
          -104 callgsubr
          -242 216 rmoveto
          -59 579 59 vlineto
          endchar
        </CharString>
        <CharString name="dvY_N">
          217 373 305 callgsubr
          60 -258 hlineto
          -91 callsubr
          268 454 rmoveto
          -661 -59 120 94 callgsubr
          172 78 callsubr
          -235 vlineto
          -90 callgsubr
          434 hlineto
          endchar
        </CharString>
        <CharString name="e">
          -74 114 278 -65 callgsubr
          endchar
        </CharString>
        <CharString name="eacute">
          -74 298 643 69 callsubr
          -86 -238 -65 callgsubr
          endchar
        </CharString>
        <CharString name="ecaron">
          -74 213 516 18 callgsubr
          -12 -238 -65 callgsubr
          endchar
        </CharString>
        <CharString name="ecircumflex">
          -76 171 600 54 callgsubr
          -5 -238 -65 callgsubr
          endchar
        </CharString>
        <CharString name="edieresis">
          -76 120 625 279 callgsubr
          -6 -263 -65 callgsubr
          -8 140 283 callsubr
        </CharString>
        <CharString name="edotaccent">
          -74 220 37 callsubr
          -92 -86 92 hlineto
          -106 -258 -65 callgsubr
          endchar
        </CharString>
        <CharString name="egrave">
          -74 197 516 143 callgsubr
          -21 -238 -65 callgsubr
          endchar
        </CharString>
        <CharString name="eight">
          41 callsubr
        </CharString>
        <CharString name="ellipsis">
          98 55 hmoveto
          92 107 -92 hlineto
          180 -107 rmoveto
          92 107 -92 hlineto
          180 -107 rmoveto
          92 107 -92 hlineto
          endchar
        </CharString>
        <CharString name="emacron">
          -74 283 608 233 callsubr
          -169 -272 -65 callgsubr
          endchar
        </CharString>
        <CharString name="emdash">
          75 263 vmoveto
          479 58 -479 hlineto
          endchar
        </CharString>
        <CharString name="endash">
          -34 20 263 rmoveto
          330 58 -330 hlineto
          endchar
        </CharString>
        <CharString name="eogonek">
          -74 114 285 callsubr
          -102 207 rmoveto
          322 callgsubr
          -25 100 callsubr
          -78 hlineto
          324 callsubr
          6 196 callgsubr
          129 338 callsubr
          -48 callgsubr
        </CharString>
        <CharString name="equal">
          -14 30 366 rmoveto
          330 62 -330 hlineto
          -234 vmoveto
          330 62 -330 hlineto
          endchar
        </CharString>
        <CharString name="eth">
          -57 228 90 rmoveto
          341 callgsubr
          233 -107 callsubr
          84 hlineto
          3 -18 1 -19 -19 vvcurveto
          61 272 rmoveto
          48 vlineto
          -89 -34 -11 14 -11 12 -12 12 rlinecurve
          -95 hlineto
          23 -19 21 -21 19 -23 -65 -25 rcurveline
          -48 vlineto
          92 35 22 -32 17 -37 12 -39 rlinecurve
          -93 -88 callsubr
          -255 -100 callsubr
          350 callsubr
          230 vlineto
          94 -29 80 -41 63 vhcurveto
          endchar
        </CharString>
        <CharString name="exclam">
          -219 50 37 callsubr
          13 -426 rlineto
          59 hlineto
          13 426 rlineto
          -84 -622 rmoveto
          301 callgsubr
          endchar
        </CharString>
        <CharString name="exclamdown">
          -219 51 373 rmoveto
          301 callgsubr
          84 -622 rmoveto
          -13 426 rlineto
          -59 hlineto
          -13 -426 rlineto
          endchar
        </CharString>
        <CharString name="f">
          -207 192 605 rmoveto
          64 -60 vlineto
          -104 callgsubr
          -105 -48 -59 48 -426 69 426 70 59 -70 89 -107 callsubr
          endchar
        </CharString>
        <CharString name="fi">
          -63 122 485 rmoveto
          237 callgsubr
          485 vlineto
          -69 184 rmoveto
          -64 69 64 vlineto
          endchar
        </CharString>
        <CharString name="five">
          131 callsubr
        </CharString>
        <CharString name="fl">
          -63 227 669 rmoveto
          -184 -105 237 callgsubr
          669 vlineto
          endchar
        </CharString>
        <CharString name="florin">
          -76 279 605 rmoveto
          64 -67 vlineto
          -53 -20 -26 -53 -6 hvcurveto
          -13 -105 rlineto
          -73 -59 65 hlineto
          -59 -472 rlineto
          343 callsubr
          19 26 53 7 hvcurveto
          61 488 rlineto
          96 59 -88 hlineto
          11 89 rlineto
          26 3 2 5 26 hhcurveto
          endchar
        </CharString>
        <CharString name="four">
          200 callsubr
        </CharString>
        <CharString name="fraction">
          212 callgsubr
        </CharString>
        <CharString name="g">
          -76 140 59 -49 callsubr
          -84 -99 callgsubr
          -128 -59 149 -105 callsubr
          547 vlineto
          endchar
        </CharString>
        <CharString name="gbreve">
          -76 140 59 -43 callgsubr
          34 393 rmoveto
          -44 callsubr
          -84 -99 callgsubr
          -128 -59 149 -105 callsubr
          547 -69 vlineto
          14 158 71 callgsubr
        </CharString>
        <CharString name="germandbls">
          20 184 148 rmoveto
          -69 -100 callsubr
          47 146 callgsubr
          -30 256 callgsubr
          45 vlineto
          26 6 -88 callgsubr
          15 hlineto
          43 25 23 42 hvcurveto
          68 -99 callsubr
          -160 -88 callsubr
          -510 68 495 vlineto
          26 6 6 26 vhcurveto
          121 hlineto
          26 5 -6 -26 hvcurveto
          -35 vlineto
          -22 -6 -3 -34 -46 -29 -24 -55 vhcurveto
          -65 -100 callsubr
          30 -89 callsubr
          -92 -99 callgsubr
          -9 -103 callgsubr
          59 vlineto
          endchar
        </CharString>
        <CharString name="grave">
          -4 203 643 303 callgsubr
        </CharString>
        <CharString name="greater">
          -14 297 311 rmoveto
          -267 -88 rlineto
          -66 vlineto
          330 115 rlineto
          78 vlineto
          -330 115 rlineto
          -66 vlineto
          endchar
        </CharString>
        <CharString name="greaterequal">
          30 302 356 rmoveto
          -252 -90 rlineto
          -65 vlineto
          334 132 rlineto
          50 vlineto
          -334 125 rlineto
          -64 vlineto
          -336 vmoveto
          334 57 -334 hlineto
          endchar
        </CharString>
        <CharString name="guillemotleft">
          83 164 106 216 callgsubr
          321 -156 216 callgsubr
          endchar
        </CharString>
        <CharString name="guillemotright">
          83 241 262 215 callgsubr
          321 156 215 callgsubr
          endchar
        </CharString>
        <CharString name="guilsinglleft">
          -117 164 106 216 callgsubr
          endchar
        </CharString>
        <CharString name="guilsinglright">
          -115 241 262 215 callgsubr
          endchar
        </CharString>
        <CharString name="h">
          -71 169 485 rmoveto
          236 callgsubr
          217 -69 -669 19 callgsubr
        </CharString>
        <CharString name="hungarumlaut">
          -4 174 516 rmoveto
          54 hlineto
          98 127 rlineto
          -74 hlineto
          -178 -127 rmoveto
          54 hlineto
          98 127 rlineto
          -74 hlineto
          endchar
        </CharString>
        <CharString name="hyphen">
          331 callgsubr
        </CharString>
        <CharString name="i">
          168 callsubr
          -2 589 rmoveto
          73 81 -73 hlineto
          endchar
        </CharString>
        <CharString name="iacute">
          168 callsubr
          516 vmoveto
          62 hlineto
          98 127 rlineto
          -82 hlineto
          endchar
        </CharString>
        <CharString name="icircumflex">
          168 callsubr
          -93 516 228 callgsubr
        </CharString>
        <CharString name="idieresis">
          168 callsubr
          -97 541 223 callsubr
          endchar
        </CharString>
        <CharString name="igrave">
          168 callsubr
          -13 643 303 callgsubr
        </CharString>
        <CharString name="imacron">
          168 callsubr
          -83 550 297 callgsubr
        </CharString>
        <CharString name="infinity">
          182 472 301 rmoveto
          -26 -3 -9 -29 vhcurveto
          -30 hlineto
          -21 -9 5 14 -10 hvcurveto
          -46 59 38 61 rlineto
          16 12 7 10 17 hhcurveto
          42 hlineto
          29 3 -10 -25 hvcurveto
          -246 -100 rmoveto
          -15 -10 -19 -15 -20 hhcurveto
          -31 hlineto
          -29 -3 9 26 hvcurveto
          94 vlineto
          25 3 10 29 vhcurveto
          20 hlineto
          28 9 -10 -22 16 hvcurveto
          39 -54 rlineto
          154 140 rmoveto
          -58 -8 -12 -50 -34 hvcurveto
          -20 -30 -28 38 rlineto
          43 -32 -13 11 -55 hhcurveto
          -37 hlineto
          -55 -22 -30 -45 hvcurveto
          -121 vlineto
          -47 22 -29 55 vhcurveto
          30 hlineto
          72 19 13 63 40 hvcurveto
          4 7 21 -29 rlineto
          -46 33 17 -8 56 hhcurveto
          39 hlineto
          56 22 29 47 hvcurveto
          121 vlineto
          45 -22 30 -56 vhcurveto
          endchar
        </CharString>
        <CharString name="integral">
          -161 156 639 203 callsubr
          46 64 -67 -88 callsubr
          -676 vlineto
          343 callsubr
          26 26 53 hvcurveto
          endchar
        </CharString>
        <CharString name="iogonek">
          -245 116 670 rmoveto
          -73 -81 73 hlineto
          -62 -747 307 callsubr
          -485 3 -25 100 callsubr
          hlineto
          endchar
        </CharString>
        <CharString name="itfLogo">
          1244 147 hmoveto
          216 callsubr
          236 -634 rmoveto
          216 callsubr
          236 -634 rmoveto
          216 callsubr
          -410 vmoveto
          196 185 -196 hlineto
          endchar
        </CharString>
        <CharString name="itfStar">
          268 663 452 rmoveto
          -28 -200 -6 -2 -34 hvcurveto
          -66 246 -8 -27 -53 -188 -8 -31 rlinecurve
          -261 8 25 -15 168 -108 28 -17 rlinecurve
          -96 -247 24 20 152 128 29 20 rlinecurve
          204 -168 -11 28 -71 189 -12 30 rlinecurve
          endchar
        </CharString>
        <CharString name="j">
          -245 45 -51 -64 callgsubr
          -14 -59 35 -105 callsubr
          547 -69 vlineto
          -2 104 rmoveto
          73 81 -73 hlineto
          endchar
        </CharString>
        <CharString name="k">
          -79 45 hmoveto
          69 669 -69 hlineto
          275 -184 286 callsubr
        </CharString>
        <CharString name="l">
          -245 114 hmoveto
          342 callsubr
          endchar
        </CharString>
        <CharString name="lacute">
          -245 48 700 202 callgsubr
          -12 -827 rmoveto
          342 callsubr
          endchar
        </CharString>
        <CharString name="lcaron">
          -218 159 669 rmoveto
          -160 27 vlineto
          35 121 rlineto
          39 vlineto
          -107 -669 rmoveto
          342 callsubr
          endchar
        </CharString>
        <CharString name="less">
          -14 360 399 rmoveto
          66 vlineto
          -330 -115 rlineto
          -78 vlineto
          330 -115 rlineto
          66 vlineto
          -267 88 rlineto
          endchar
        </CharString>
        <CharString name="lessequal">
          30 374 444 rmoveto
          64 vlineto
          -334 -125 rlineto
          -50 vlineto
          334 -132 rlineto
          65 vlineto
          -252 90 rlineto
          252 -191 rmoveto
          -334 -57 334 hlineto
          endchar
        </CharString>
        <CharString name="logicalnot">
          28 392 395 rmoveto
          -362 -68 303 -150 59 hlineto
          endchar
        </CharString>
        <CharString name="lozenge">
          42 232 70 rmoveto
          -112 241 112 242 111 -242 rlineto
          -83 311 rmoveto
          -57 hlineto
          -155 -311 155 -311 rlineto
          57 hlineto
          155 311 rlineto
          endchar
        </CharString>
        <CharString name="lslash">
          -235 210 442 rmoveto
          -91 -42 rlineto
          269 -69 -301 vlineto
          -78 -36 rlineto
          -59 vlineto
          78 36 rlineto
          -309 69 341 vlineto
          91 42 rlineto
          endchar
        </CharString>
        <CharString name="m">
          98 343 485 rmoveto
          -31 -23 -11 -29 -7 hvcurveto
          27 -11 -24 13 -38 hhcurveto
          -40 hlineto
          236 callgsubr
          33 -69 -485 69 390 vlineto
          27 10 9 24 vhcurveto
          40 hlineto
          26 5 -5 -26 hvcurveto
          -395 19 callgsubr
        </CharString>
        <CharString name="macron">
          -4 82 550 297 callgsubr
        </CharString>
        <CharString name="minus">
          -24 25 281 346 callgsubr
          endchar
        </CharString>
        <CharString name="multiply">
          -54 325 416 rmoveto
          -45 45 -105 -105 -105 105 -45 -45 105 -105 -105 -105 45 -45 105 105 105 -105 45 45 -105 105 rlineto
          endchar
        </CharString>
        <CharString name="n">
          -71 169 485 rmoveto
          236 callgsubr
          33 -69 -485 19 callgsubr
        </CharString>
        <CharString name="nacute">
          -71 296 643 69 callsubr
          -29 -31 rmoveto
          236 callgsubr
          33 -69 -485 19 callgsubr
        </CharString>
        <CharString name="ncaron">
          -71 204 516 18 callgsubr
          52 -31 rmoveto
          236 callgsubr
          33 -69 -485 19 callgsubr
        </CharString>
        <CharString name="nine">
          82 callgsubr
        </CharString>
        <CharString name="notequal">
          70 424 364 rmoveto
          58 -109 vlineto
          44 94 rlineto
          -55 hlineto
          -44 -94 rlineto
          -210 -58 184 hlineto
          -46 -98 rlineto
          -138 -58 111 hlineto
          -46 -100 rlineto
          55 hlineto
          46 100 rlineto
          208 58 -181 hlineto
          46 98 rlineto
          endchar
        </CharString>
        <CharString name="ntilde">
          -71 96 545 rmoveto
          185 callsubr
          29 callgsubr
          vlineto
          73 -49 rmoveto
          236 callgsubr
          33 -69 -485 19 callgsubr
        </CharString>
        <CharString name="numbersign">
          44 268 224 rmoveto
          -117 hlineto
          29 174 rlineto
          117 hlineto
          121 hmoveto
          58 -48 vlineto
          27 166 rlineto
          -63 hlineto
          -27 -166 rlineto
          -117 hlineto
          27 166 rlineto
          -63 hlineto
          -27 -166 rlineto
          -67 -58 57 hlineto
          -29 -174 rlineto
          -58 -58 48 hlineto
          -27 -166 rlineto
          63 hlineto
          27 166 rlineto
          117 hlineto
          -27 -166 rlineto
          63 hlineto
          27 166 rlineto
          67 58 -57 hlineto
          29 174 rlineto
          endchar
        </CharString>
        <CharString name="o">
          -64 232 90 -57 callgsubr
          endchar
        </CharString>
        <CharString name="oacute">
          -64 294 643 69 callsubr
          36 -426 -57 callgsubr
          endchar
        </CharString>
        <CharString name="ocircumflex">
          -64 167 600 54 callgsubr
          117 -426 -57 callgsubr
          endchar
        </CharString>
        <CharString name="odieresis">
          -64 125 625 279 callgsubr
          107 -451 -57 callgsubr
          -8 140 283 callsubr
        </CharString>
        <CharString name="oe">
          114 288 285 callsubr
          -181 -189 rmoveto
          -23 -2 -10 -7 -22 hhcurveto
          -40 -76 callgsubr
          40 hlineto
          22 10 -8 -22 2 hvcurveto
          88 89 rmoveto
          293 callgsubr
          -327 187 callsubr
          129 338 callsubr
          -48 callgsubr
        </CharString>
        <CharString name="ogonek">
          -4 206 -158 rmoveto
          96 callgsubr
          88 -66 -35 100 callsubr
          hlineto
          endchar
        </CharString>
        <CharString name="ograve">
          -64 198 516 143 callgsubr
          96 -426 -57 callgsubr
          endchar
        </CharString>
        <CharString name="ohungarumlaut">
          -64 247 516 133 callsubr
          85 -426 -57 callgsubr
          endchar
        </CharString>
        <CharString name="omacron">
          -64 287 608 233 callsubr
          -55 -460 -57 callgsubr
          endchar
        </CharString>
        <CharString name="one">
          309 callsubr
        </CharString>
        <CharString name="onesuperior">
          -278 96 37 callsubr
          -85 -42 37 -300 48 hlineto
          endchar
        </CharString>
        <CharString name="ordfeminine">
          -168 96 323 rmoveto
          -19 -4 4 18 hvcurveto
          213 vlineto
          19 4 3 19 vhcurveto
          37 hlineto
          17 7 -7 -19 hvcurveto
          -206 vlineto
          -19 -7 -6 -17 vhcurveto
          24 299 rmoveto
          -24 vlineto
          17 -6 -14 7 -19 hhcurveto
          -37 hlineto
          330 callsubr
          37 hlineto
          19 14 7 17 6 hvcurveto
          -24 49 342 vlineto
          endchar
        </CharString>
        <CharString name="ordmasculine">
          -178 152 344 rmoveto
          -18 -4 -4 -19 vhcurveto
          -33 hlineto
          -19 -3 4 18 hvcurveto
          214 vlineto
          19 3 3 19 vhcurveto
          33 hlineto
          19 4 -3 -19 hvcurveto
          -70 64 rmoveto
          330 callsubr
          62 hlineto
          37 19 18 38 hvcurveto
          230 vlineto
          38 -19 18 -37 vhcurveto
          endchar
        </CharString>
        <CharString name="oslash">
          -54 239 85 rmoveto
          -27 -5 -5 -27 vhcurveto
          -64 hlineto
          -9 -6 1 1 -5 hvcurveto
          116 287 rlineto
          -128 58 rmoveto
          27 5 5 27 vhcurveto
          64 hlineto
          9 6 -1 -1 5 hvcurveto
          -116 -287 rlineto
          194 362 rmoveto
          -48 hlineto
          -9 -22 rlineto
          1 -7 -7 1 -8 hhcurveto
          298 callsubr
          -327 vlineto
          -25 6 -19 11 -13 vhcurveto
          -17 -42 rlineto
          48 hlineto
          9 22 rlineto
          -1 7 7 -1 8 hhcurveto
          102 -105 callsubr
          327 vlineto
          25 -6 19 -11 13 vhcurveto
          endchar
        </CharString>
        <CharString name="otilde">
          -64 100 545 rmoveto
          185 callsubr
          29 callgsubr
          vlineto
          132 -444 -57 callgsubr
          endchar
        </CharString>
        <CharString name="p">
          193 callsubr
          33 -69 -626 246 callsubr
        </CharString>
        <CharString name="paragraph">
          86 275 37 callsubr
          -141 -88 callsubr
          -234 -100 callsubr
          73 -371 68 hlineto
          82 763 rmoveto
          -763 68 763 vlineto
          endchar
        </CharString>
        <CharString name="parenleft">
          -159 49 342 rmoveto
          -71 vlineto
          -285 63 -164 143 vhcurveto
          16 57 hlineto
          -14 1 rlineto
          -111 8 -30 164 218 vvcurveto
          73 vlineto
          218 30 164 111 8 vhcurveto
          14 1 rlineto
          57 -16 vlineto
          -143 -63 -164 -285 hvcurveto
          endchar
        </CharString>
        <CharString name="parenright">
          -159 193 271 rmoveto
          71 vlineto
          285 -63 164 -143 vhcurveto
          -16 -57 hlineto
          14 -1 rlineto
          111 -8 30 -164 -218 vvcurveto
          -73 vlineto
          -218 -30 -164 -111 -8 vhcurveto
          -14 -1 rlineto
          -57 16 vlineto
          143 63 164 285 hvcurveto
          endchar
        </CharString>
        <CharString name="percent">
          169 28 callgsubr
          endchar
        </CharString>
        <CharString name="period">
          -262 30 hmoveto
          301 callgsubr
          endchar
        </CharString>
        <CharString name="periodcentered">
          -202 30 259 rmoveto
          301 callgsubr
          endchar
        </CharString>
        <CharString name="perthousand">
          416 28 callgsubr
          337 -367 rmoveto
          49 -21 22 -46 vhcurveto
          -57 hlineto
          -46 -21 -22 -49 hvcurveto
          -184 vlineto
          -49 21 -22 46 vhcurveto
          57 hlineto
          46 21 22 49 hvcurveto
          -56 9 rmoveto
          -25 -3 -5 -25 vhcurveto
          -23 hlineto
          -25 -3 5 25 hvcurveto
          166 vlineto
          25 3 5 25 vhcurveto
          23 hlineto
          25 3 -5 -25 hvcurveto
          endchar
        </CharString>
        <CharString name="pi">
          -4 400 485 rmoveto
          -333 -390 hlineto
          -104 callsubr
          -36 -64 57 -105 callsubr
          347 126 -426 68 426 70 vlineto
          endchar
        </CharString>
        <CharString name="plus">
          -24 355 341 rmoveto
          -130 150 -70 -150 -130 -60 130 -150 70 150 130 hlineto
          endchar
        </CharString>
        <CharString name="plusminus">
          -14 30 179 346 callgsubr
          200 170 rmoveto
          80 -70 -80 -130 -60 130 -80 70 80 130 60 vlineto
          endchar
        </CharString>
        <CharString name="product">
          4 70 37 callsubr
          -527 -99 callgsubr
          -29 -64 50 -105 callsubr
          484 146 -563 68 622 vlineto
          endchar
        </CharString>
        <CharString name="q">
          -76 140 59 -49 callsubr
          -174 69 626 vlineto
          endchar
        </CharString>
        <CharString name="question">
          -96 93 hmoveto
          301 callgsubr
          6 510 rmoveto
          -56 -23 -30 -47 hvcurveto
          -86 69 72 vlineto
          24 3 9 26 vhcurveto
          48 hlineto
          25 3 -9 -24 hvcurveto
          -177 vlineto
          -24 -3 -8 -25 vhcurveto
          -66 hlineto
          6 -126 rlineto
          57 hlineto
          3 67 rlineto
          18 hlineto
          56 23 31 47 hvcurveto
          204 vlineto
          47 -23 30 -56 vhcurveto
          endchar
        </CharString>
        <CharString name="questiondown">
          -96 190 485 rmoveto
          -82 -112 82 hlineto
          4 -347 rmoveto
          -72 vlineto
          -24 -3 -9 -26 vhcurveto
          -48 hlineto
          -25 -3 9 24 hvcurveto
          177 vlineto
          24 3 8 25 vhcurveto
          66 hlineto
          -6 126 rlineto
          -57 hlineto
          -3 -67 rlineto
          -18 hlineto
          -56 -23 -31 -47 hvcurveto
          -204 vlineto
          -47 23 -30 56 vhcurveto
          85 hlineto
          56 23 30 47 hvcurveto
          86 vlineto
          endchar
        </CharString>
        <CharString name="quotedbl">
          -150 35 37 callsubr
          -212 64 212 vlineto
          56 hmoveto
          -212 64 212 vlineto
          endchar
        </CharString>
        <CharString name="quotedblbase">
          -130 213 callgsubr
          50 hmoveto
          164 callgsubr
          endchar
        </CharString>
        <CharString name="quotedblleft">
          -130 244 373 rmoveto
          310 callgsubr
          -50 hmoveto
          310 callgsubr
          endchar
        </CharString>
        <CharString name="quotedblright">
          -130 30 622 251 callgsubr
          50 hmoveto
          164 callgsubr
          endchar
        </CharString>
        <CharString name="quoteleft">
          -262 112 373 rmoveto
          310 callgsubr
          endchar
        </CharString>
        <CharString name="quoteright">
          -262 30 622 251 callgsubr
          endchar
        </CharString>
        <CharString name="quotesinglbase">
          -262 213 callgsubr
          endchar
        </CharString>
        <CharString name="quotesingle">
          -265 35 37 callsubr
          -212 69 212 vlineto
          endchar
        </CharString>
        <CharString name="r">
          -192 186 485 rmoveto
          -39 -24 -28 -28 -9 hvcurveto
          56 -69 -485 69 350 vlineto
          51 19 24 44 vhcurveto
          30 60 hlineto
          endchar
        </CharString>
        <CharString name="racute">
          -192 259 643 69 callsubr
          -47 258 callsubr
        </CharString>
        <CharString name="rcaron">
          -192 170 516 18 callgsubr
          31 258 callsubr
        </CharString>
        <CharString name="registered">
          -7 362 529 rmoveto
          100 -34 52 -78 vhcurveto
          -103 hlineto
          -78 -34 -52 -100 hvcurveto
          -39 vlineto
          -100 34 -47 78 vhcurveto
          103 hlineto
          78 34 47 100 hvcurveto
          -214 -114 rmoveto
          -60 -16 50 63 hvcurveto
          40 vlineto
          64 16 57 60 vhcurveto
          102 hlineto
          60 16 -57 -64 hvcurveto
          -40 vlineto
          -63 -16 -50 -60 vhcurveto
          -98 244 rmoveto
          -213 31 86 12 vlineto
          31 -86 rlineto
          32 hlineto
          -32 87 rlineto
          14 3 7 10 17 vvcurveto
          66 vlineto
          21 -10 9 -21 vhcurveto
          -93 vmoveto
          -5 -1 -1 -5 vhcurveto
          -27 73 27 hlineto
          5 1 -1 -6 hvcurveto
          endchar
        </CharString>
        <CharString name="ring">
          -4 295 588 rmoveto
          45 -21 20 -44 vhcurveto
          -60 hlineto
          -44 -21 -20 -45 hvcurveto
          -17 vlineto
          -45 21 -20 44 vhcurveto
          60 hlineto
          44 21 20 45 hvcurveto
          -51 6 rmoveto
          -22 -3 -5 -25 vhcurveto
          -32 hlineto
          -25 -3 5 22 hvcurveto
          5 vlineto
          22 3 5 25 vhcurveto
          32 hlineto
          25 3 -5 -22 hvcurveto
          endchar
        </CharString>
        <CharString name="s">
          -107 194 89 82 callsubr
        </CharString>
        <CharString name="sacute">
          -107 125 516 202 callgsubr
          -9 77 callgsubr
        </CharString>
        <CharString name="scaron">
          -107 103 516 rmoveto
          87 hlineto
          85 127 rlineto
          89 callsubr
          176 77 callgsubr
        </CharString>
        <CharString name="section">
          -17 150 242 -51 callsubr
          91 -107 callsubr
          87 -89 callsubr
          -91 vlineto
          226 callgsubr
          212 -51 callsubr
          93 136 callgsubr
          -38 69 278 callgsubr
          -88 -88 callsubr
          -115 vlineto
          -17 3 -14 5 -11 vhcurveto
          -36 -9 -12 -33 -45 vvcurveto
          -83 -100 callsubr
          68 -89 callsubr
          -93 -99 callgsubr
          -46 -103 callgsubr
          38 -69 277 callsubr
          88 -105 callsubr
          115 vlineto
          17 -3 14 -5 11 vhcurveto
          36 9 12 33 45 vvcurveto
          83 -48 callgsubr
        </CharString>
        <CharString name="semicolon">
          -262 213 callgsubr
          -82 261 rmoveto
          301 callgsubr
          endchar
        </CharString>
        <CharString name="seven">
          247 callgsubr
        </CharString>
        <CharString name="six">
          87 callgsubr
        </CharString>
        <CharString name="slash">
          212 callgsubr
        </CharString>
        <CharString name="space">
          -274 endchar
        </CharString>
        <CharString name="sterling">
          -49 127 59 rmoveto
          24 15 2 30 38 vvcurveto
          131 127 59 -127 200 347 callgsubr
          -89 callsubr
          -80 68 91 -99 callsubr
          -84 -88 callsubr
          -211 -49 -59 49 -116 vlineto
          -68 -14 -30 -35 vhcurveto
          -59 295 59 vlineto
          endchar
        </CharString>
        <CharString name="t">
          -207 187 426 231 callsubr
        </CharString>
        <CharString name="tcaron">
          -207 118 564 rmoveto
          -69 -79 -44 -59 44 272 callsubr
          59 64 -38 -103 callgsubr
          331 69 59 -69 vlineto
          42 168 rmoveto
          -140 27 vlineto
          50 101 rlineto
          39 vlineto
          endchar
        </CharString>
        <CharString name="thorn">
          193 callsubr
          217 -69 -810 246 callsubr
        </CharString>
        <CharString name="three">
          61 callgsubr
        </CharString>
        <CharString name="threesuperior">
          -208 64 563 rmoveto
          14 3 3 14 vhcurveto
          24 hlineto
          14 3 -3 -14 hvcurveto
          -71 vlineto
          -14 -3 -3 -14 vhcurveto
          -30 -43 30 hlineto
          14 3 -3 -14 hvcurveto
          -75 vlineto
          -15 -3 -3 -14 vhcurveto
          -24 hlineto
          -14 -3 3 15 hvcurveto
          45 -48 -62 vlineto
          -29 15 -14 29 vhcurveto
          66 hlineto
          29 15 14 29 hvcurveto
          105 vlineto
          16 -8 8 -13 2 vhcurveto
          13 1 8 9 16 vvcurveto
          99 vlineto
          29 -15 14 -29 vhcurveto
          -66 hlineto
          -29 -15 -14 -29 hvcurveto
          -62 48 vlineto
          endchar
        </CharString>
        <CharString name="tilde">
          -4 249 534 rmoveto
          29 callgsubr
          11 vlineto
          185 callsubr
          endchar
        </CharString>
        <CharString name="trademark">
          194 233 37 callsubr
          -228 -59 80 -263 68 263 80 hlineto
          247 59 rmoveto
          -60 -186 -62 186 rlineto
          -87 -322 63 222 hlineto
          54 -164 rlineto
          65 hlineto
          52 163 rlineto
          -221 63 322 vlineto
          endchar
        </CharString>
        <CharString name="two">
          120 callsubr
        </CharString>
        <CharString name="twosuperior">
          61 563 rmoveto
          14 3 3 14 vhcurveto
          20 hlineto
          14 3 -3 -14 hvcurveto
          -12 vlineto
          -27 -3 -20 -12 -22 vhcurveto
          -86 -158 rlineto
          -44 152 45 -98 vlineto
          79 146 rlineto
          13 25 3 25 27 vvcurveto
          31 vlineto
          29 -14 14 -29 vhcurveto
          -63 hlineto
          -29 -14 -14 -29 hvcurveto
          -67 47 vlineto
          endchar
        </CharString>
        <CharString name="u">
          -71 219 485 -29 callsubr
          endchar
        </CharString>
        <CharString name="uacute">
          -71 297 643 69 callsubr
          20 -31 -29 callsubr
          endchar
        </CharString>
        <CharString name="ucircumflex">
          -76 161 600 54 callgsubr
          110 -31 -29 callsubr
          endchar
        </CharString>
        <CharString name="udieresis">
          -76 117 625 279 callgsubr
          102 -56 -29 callsubr
          -83 140 283 callsubr
        </CharString>
        <CharString name="ugrave">
          -71 200 516 143 callgsubr
          81 -31 -29 callsubr
          endchar
        </CharString>
        <CharString name="uhungarumlaut">
          -71 228 516 133 callsubr
          91 -31 -29 callsubr
          endchar
        </CharString>
        <CharString name="umacron">
          -71 283 608 233 callsubr
          -64 -65 -29 callsubr
          endchar
        </CharString>
        <CharString name="underscore">
          70 -103 vmoveto
          474 59 -474 hlineto
          endchar
        </CharString>
        <CharString name="uni00A0">
          -274 endchar
        </CharString>
        <CharString name="uni00AD">
          331 callgsubr
        </CharString>
        <CharString name="uni00B5">
          -65 214 485 rmoveto
          -390 vlineto
          -27 -10 -9 -24 164 callsubr
          -69 -626 69 141 10 vlineto
          40 hlineto
          27 20 9 24 8 hvcurveto
          -33 69 485 vlineto
          endchar
        </CharString>
        <CharString name="uni0122">
          -54 140 -211 115 callsubr
          165 499 rmoveto
          95 -99 callsubr
          -97 hlineto
          53 callgsubr
          vlineto
          endchar
        </CharString>
        <CharString name="uni0123">
          -76 210 676 rmoveto
          -27 hlineto
          -53 -121 rlineto
          -39 80 vlineto
          -70 -457 -49 callsubr
          -84 -99 callgsubr
          -128 -59 149 -105 callsubr
          547 vlineto
          endchar
        </CharString>
        <CharString name="uni0136">
          -59 55 hmoveto
          68 622 -68 hlineto
          86 -833 115 callsubr
          194 673 rmoveto
          291 callsubr
        </CharString>
        <CharString name="uni0137">
          -79 45 hmoveto
          69 669 -69 hlineto
          85 -880 115 callsubr
          190 536 286 callsubr
        </CharString>
        <CharString name="uni013B">
          -133 119 -211 115 callsubr
          4 110 241 callgsubr
        </CharString>
        <CharString name="uni013C">
          -245 114 hmoveto
          342 callsubr
          -5 -51 148 callgsubr
        </CharString>
        <CharString name="uni0145">
          150 callsubr
          -183 -673 148 callgsubr
        </CharString>
        <CharString name="uni0146">
          -71 122 -211 115 callsubr
          47 536 rmoveto
          236 callgsubr
          33 -69 -485 19 callgsubr
        </CharString>
        <CharString name="uni0156">
          -40 148 -211 115 callsubr
          -25 614 rmoveto
          93 -89 callsubr
          -182 305 callsubr
          130 -58 rmoveto
          42 5 20 26 47 vvcurveto
          204 -99 callsubr
          -181 -622 68 260 59 hlineto
          91 -260 rlineto
          74 hlineto
          endchar
        </CharString>
        <CharString name="uni0157">
          -192 42 -211 115 callsubr
          144 536 rmoveto
          -39 -24 -28 -28 -9 hvcurveto
          56 -69 -485 69 350 vlineto
          51 19 24 44 vhcurveto
          30 60 hlineto
          endchar
        </CharString>
        <CharString name="uni015E">
          -77 218 90 -44 callgsubr
          -91 -311 148 callgsubr
        </CharString>
        <CharString name="uni015F">
          -107 194 89 -43 callsubr
          -86 -232 148 callgsubr
        </CharString>
        <CharString name="uni0162">
          -126 97 -211 115 callsubr
          176 673 218 callgsubr
        </CharString>
        <CharString name="uni0163">
          -126 100 -211 115 callsubr
          173 673 218 callgsubr
        </CharString>
        <CharString name="uni0218">
          -77 218 90 -44 callgsubr
          -92 -311 148 callgsubr
        </CharString>
        <CharString name="uni0219">
          -107 194 89 -43 callsubr
          -69 -232 148 callgsubr
        </CharString>
        <CharString name="uni021A">
          -126 101 -211 115 callsubr
          172 673 218 callgsubr
        </CharString>
        <CharString name="uni021B">
          -207 78 -211 115 callsubr
          109 477 231 callsubr
        </CharString>
        <CharString name="uni02C9">
          -4 82 550 297 callgsubr
        </CharString>
        <CharString name="uni0901">
          199 callgsubr
          30 39 rmoveto
          -69 68 69 vlineto
          endchar
        </CharString>
        <CharString name="uni0902">
          -404 -130 813 165 callgsubr
        </CharString>
        <CharString name="uni0902.aMatraI">
          -404 20 743 165 callgsubr
        </CharString>
        <CharString name="uni0903">
          -251 40 149 rmoveto
          -86 73 86 vlineto
          -73 350 165 callgsubr
        </CharString>
        <CharString name="uni0905">
          96 520 37 callsubr
          -143 -66 callgsubr
          75 vlineto
          endchar
        </CharString>
        <CharString name="uni0906">
          276 699 37 callsubr
          -322 -66 callgsubr
          111 277 callgsubr
          endchar
        </CharString>
        <CharString name="uni0907">
          -64 284 161 callgsubr
          76 59 -380 35 callsubr
          endchar
        </CharString>
        <CharString name="uni0908">
          -64 284 161 callgsubr
          76 59 -76 62 vlineto
          190 callsubr
          -55 hlineto
          -53 -26 -25 -53 hvcurveto
          -73 -235 35 callsubr
          endchar
        </CharString>
        <CharString name="uni09080902">
          -64 284 724 rmoveto
          190 callsubr
          -55 hlineto
          -53 -26 -25 -53 hvcurveto
          -113 -235 35 callsubr
          149 137 76 59 -76 hlineto
          30 97 242 callsubr
        </CharString>
        <CharString name="uni0909">
          -80 344 37 callsubr
          -364 141 callsubr
          232 166 callsubr
          130 -50 callsubr
          83 hlineto
          endchar
        </CharString>
        <CharString name="uni090A">
          52 476 37 callsubr
          -496 141 callsubr
          219 57 204 callgsubr
          -177 -99 callgsubr
          -22 -59 43 -105 callsubr
          199 -99 callsubr
          -115 2 hlineto
          23 2 14 16 29 vvcurveto
          130 -50 callsubr
          215 hlineto
          endchar
        </CharString>
        <CharString name="uni090B">
          219 291 callgsubr
          -8 -8 -15 vhcurveto
          -18 hlineto
          -17 -8 10 22 hvcurveto
          -137 268 rmoveto
          326 59 -663 -59 269 -300 -8 hlineto
          -77 154 rlineto
          -15 callsubr
          23 -203 68 203 173 hlineto
          22 6 -3 -24 hvcurveto
          -85 vlineto
          -24 -3 -8 -25 vhcurveto
          -2 hlineto
          -26 -3 8 24 hvcurveto
          48 -68 -61 vlineto
          -44 22 -34 48 vhcurveto
          47 hlineto
          56 23 30 48 hvcurveto
          105 vlineto
          35 -11 14 -20 9 vhcurveto
          5 vlineto
          22 8 10 18 56 vvcurveto
          79 vlineto
          48 -23 30 -56 vhcurveto
          -44 324 callgsubr
          -81 hlineto
          endchar
        </CharString>
        <CharString name="uni090C">
          84 440 34 rmoveto
          529 68 59 -528 -59 391 -78 -80 vlineto
          -97 callsubr
          -206 69 206 vlineto
          26 5 5 26 vhcurveto
          63 -333 -3 hlineto
          -51 -25 -82 callgsubr
          -58 58 callsubr
          endchar
        </CharString>
        <CharString name="uni090D">
          -27 242 666 rmoveto
          281 callsubr
          -64 179 callsubr
          255 -44 rmoveto
          -417 -59 75 -484 hlineto
          15 callsubr
        </CharString>
        <CharString name="uni090E">
          -27 397 37 callsubr
          -65 229 callgsubr
          -283 -59 75 -484 vlineto
          15 callsubr
        </CharString>
        <CharString name="uni090F">
          -27 397 37 callsubr
          -417 -59 75 -484 hlineto
          15 callsubr
        </CharString>
        <CharString name="uni0910">
          -27 397 37 callsubr
          -75 184 callgsubr
          -269 -59 75 -484 hlineto
          15 callsubr
        </CharString>
        <CharString name="uni0911">
          276 699 37 callsubr
          -322 -66 callgsubr
          111 277 callgsubr
          -44 228 71 callsubr
        </CharString>
        <CharString name="uni0912">
          275 699 37 callsubr
          -75 229 callgsubr
          -178 -275 -143 2 vlineto
          -63 callgsubr
          111 277 callgsubr
          endchar
        </CharString>
        <CharString name="uni0913">
          275 699 37 callsubr
          -73 184 callgsubr
          -176 -66 callgsubr
          111 277 callgsubr
          endchar
        </CharString>
        <CharString name="uni0914">
          276 699 37 callsubr
          -78 hlineto
          -45 191 268 callgsubr
          -91 hlineto
          140 -132 32 -30 23 -19 13 -10 rlinecurve
          -166 -66 callgsubr
          111 277 callgsubr
          endchar
        </CharString>
        <CharString name="uni0915">
          103 527 312 callgsubr
          -547 -59 239 -392 vlineto
          -26 -8 -8 -95 callgsubr
          -48 callsubr
          -101 callgsubr
        </CharString>
        <CharString name="uni0915093C">
          103 52 -56 -31 callgsubr
          475 533 rmoveto
          59 -547 -59 239 -392 vlineto
          -26 -8 -8 -95 callgsubr
          -48 callsubr
          -101 callgsubr
        </CharString>
        <CharString name="uni0915093C094D">
          -52 52 -56 -31 callgsubr
          389 533 rmoveto
          59 -461 -59 239 -392 vlineto
          -26 -8 -8 -95 callgsubr
          -48 callsubr
          -72 callgsubr
          -87 69 362 -26 callgsubr
          119 59 -121 241 callsubr
        </CharString>
        <CharString name="uni0915093C094D0915093C">
          436 85 -87 -31 callgsubr
          340 -86 -31 callgsubr
          127 172 rmoveto
          -80 callgsubr
          -40 -103 callgsubr
          227 -72 callsubr
          -192 176 callsubr
          264 vlineto
          308 hmoveto
          59 -880 -59 239 -392 vlineto
          -26 -8 -8 -95 callgsubr
          -48 callsubr
          -72 callgsubr
          -87 69 392 -26 callgsubr
          61 hlineto
          -3 -9 -2 -10 -10 vvcurveto
          -240 -100 callsubr
          -101 callgsubr
        </CharString>
        <CharString name="uni0915093C094D0924">
          320 98 -86 -31 callgsubr
          499 455 rmoveto
          -277 hlineto
          336 callsubr
          309 vlineto
          144 callgsubr
          -761 -59 239 -392 hlineto
          -26 -8 -8 -95 callgsubr
          -48 callsubr
          -72 callgsubr
          -87 69 362 -26 callgsubr
          72 hlineto
          -47 callsubr
          -297 -12 callgsubr
          272 255 callgsubr
          -396 284 callgsubr
        </CharString>
        <CharString name="uni0915093C094D092B">
          451 98 -86 -31 callgsubr
          469 62 callgsubr
          482 108 rmoveto
          59 -895 -59 239 -392 vlineto
          -26 -8 -8 -95 callgsubr
          -48 callsubr
          -72 callgsubr
          -87 69 362 -26 callgsubr
          71 -239 hlineto
          -106 callgsubr
          -101 callgsubr
        </CharString>
        <CharString name="uni0915093C094D092B093C">
          451 98 -86 -31 callgsubr
          351 -86 -31 callgsubr
          118 62 callgsubr
          482 108 rmoveto
          59 -895 -59 239 -392 vlineto
          -26 -8 -8 -95 callgsubr
          -48 callsubr
          -72 callgsubr
          -87 69 362 -26 callgsubr
          71 -239 hlineto
          -106 callgsubr
          -101 callgsubr
        </CharString>
        <CharString name="uni0915093C094D092C">
          323 98 -86 -31 callgsubr
          389 426 rmoveto
          76 59 -243 176 callsubr
          315 -238 vlineto
          186 callsubr
          -767 -59 239 -392 hlineto
          -26 -8 -8 -95 callgsubr
          -48 callsubr
          -72 callgsubr
          -87 69 392 -26 callgsubr
          72 hlineto
          -47 callsubr
          266 callgsubr
        </CharString>
        <CharString name="uni0915093C094D092E">
          473 98 -86 -31 callgsubr
          655 432 65 callgsubr
          -365 -75 callgsubr
          -251 59 126 callsubr
          140 283 -131 vlineto
          326 190 rmoveto
          -917 -59 239 -392 hlineto
          -26 -8 -8 -95 callgsubr
          -48 callsubr
          -72 callgsubr
          -87 69 339 -26 callgsubr
          72 72 callgsubr
        </CharString>
        <CharString name="uni0915093C094D0930">
          103 157 -133 -31 callgsubr
          370 610 rmoveto
          59 -547 -59 239 -362 vlineto
          -80 callgsubr
          -40 59 callgsubr
          -219 vlineto
          111 callsubr
        </CharString>
        <CharString name="uni0915093C094D0930094D">
          8 164 -128 -31 callgsubr
          298 605 rmoveto
          59 -482 -59 239 -362 vlineto
          -80 callgsubr
          -40 59 callgsubr
          136 callsubr
          16 -17 callgsubr
          362 -26 callgsubr
          140 59 -142 241 callsubr
        </CharString>
        <CharString name="uni0915094D">
          -52 441 312 callgsubr
          -461 -59 239 -392 vlineto
          -26 -8 -8 -95 callgsubr
          -48 callsubr
          -72 callgsubr
          -87 69 362 -26 callgsubr
          119 59 -121 241 callsubr
        </CharString>
        <CharString name="uni0915094D0915">
          436 552 315 callsubr
          227 -72 callsubr
          -192 176 callsubr
          264 vlineto
          308 hmoveto
          59 -880 -59 239 -392 vlineto
          -26 -8 -8 -95 callgsubr
          -48 callsubr
          -72 callgsubr
          -87 69 392 -26 callgsubr
          61 hlineto
          -3 -9 -2 -10 -10 vvcurveto
          -240 -100 callsubr
          -101 callgsubr
        </CharString>
        <CharString name="uni0915094D0916">
          525 528 336 -64 callgsubr
          -35 150 317 callgsubr
          117 209 204 callgsubr
          421 90 rmoveto
          -969 -59 239 -392 hlineto
          -26 -8 -8 -95 callgsubr
          -249 vlineto
          -53 26 -26 53 vhcurveto
          63 hlineto
          14 11 3 6 7 hvcurveto
          -87 69 362 vlineto
          26 8 8 26 vhcurveto
          71 -317 hlineto
          77 callsubr
        </CharString>
        <CharString name="uni0915094D091A">
          307 587 171 rmoveto
          -80 callgsubr
          -60 -103 callgsubr
          197 vlineto
          26 5 4 27 1 vhcurveto
          40 59 -214 hlineto
          336 callsubr
          299 vlineto
          144 callgsubr
          -751 -59 239 -392 hlineto
          -26 -8 -8 -95 callgsubr
          -48 callsubr
          -72 callgsubr
          -87 69 362 -26 callgsubr
          79 254 callgsubr
          -213 107 callgsubr
        </CharString>
        <CharString name="uni0915094D091C">
          434 714 280 callsubr
          -142 vlineto
          -53 callsubr
          87 426 vlineto
          144 callgsubr
          -878 -59 239 -392 hlineto
          -26 -8 -8 -95 callgsubr
          -48 callsubr
          -72 callgsubr
          -87 69 392 -26 callgsubr
          71 247 callsubr
        </CharString>
        <CharString name="uni0915094D091F">
          278 320 485 126 callsubr
          87 263 -78 vlineto
          69 -59 rmoveto
          137 82 59 -722 -59 239 -392 vlineto
          -26 -8 -8 -95 callgsubr
          -48 callsubr
          -72 callgsubr
          -87 69 392 -26 callgsubr
          72 hlineto
          -47 callsubr
          23 callgsubr
          endchar
        </CharString>
        <CharString name="uni0915094D0923">
          434 558 168 rmoveto
          -59 callsubr
          395 96 vlineto
          -238 88 callsubr
          465 167 rmoveto
          -878 -59 239 -392 hlineto
          -26 -8 -8 -95 callgsubr
          -48 callsubr
          -72 callgsubr
          -87 69 362 -26 callgsubr
          71 -239 hlineto
          -18 callsubr
          406 87 326 callgsubr
        </CharString>
        <CharString name="uni0915094D0924">
          123 547 312 callgsubr
          -567 -59 259 -87 vlineto
          6 -7 -11 3 -14 hhcurveto
          -202 -59 71 hlineto
          -7 -7 -4 -11 -16 vvcurveto
          -235 -100 callsubr
          55 59 -73 callsubr
          227 97 callgsubr
          26 8 -8 -26 hvcurveto
          -392 69 392 vlineto
          26 8 8 26 vhcurveto
          40 hlineto
          26 5 -5 -26 hvcurveto
          -227 134 callsubr
          249 vlineto
          53 -26 26 -53 vhcurveto
          -63 176 callsubr
          vlineto
          endchar
        </CharString>
        <CharString name="uni0915094D0924094D092F">
          611 891 -67 callgsubr
          176 32 -70 callsubr
          113 -3 callsubr
          -571 -160 126 callsubr
          169 399 301 callsubr
          -1055 -59 239 -392 hlineto
          -26 -8 -8 -95 callgsubr
          -48 callsubr
          -72 callgsubr
          -87 69 310 -26 callgsubr
          97 hlineto
          -47 callsubr
          -245 -12 callgsubr
          220 255 callgsubr
          -187 hlineto
          -92 callsubr
        </CharString>
        <CharString name="uni0915094D0924094D0930">
          289 570 263 rmoveto
          341 callsubr
          -61 176 callsubr
          282 vlineto
          355 callsubr
          -733 -59 239 -392 hlineto
          -26 -8 -8 -95 callgsubr
          -48 callsubr
          -72 callgsubr
          -87 69 392 -26 callgsubr
          48 hlineto
          243 callgsubr
          75 hlineto
          endchar
        </CharString>
        <CharString name="uni0915094D0924094D0935">
          461 741 177 callgsubr
          -381 hlineto
          336 callsubr
          453 vlineto
          144 callgsubr
          -905 -59 239 -392 hlineto
          -26 -8 -8 -95 callgsubr
          -48 callsubr
          -72 callgsubr
          -87 69 362 -26 callgsubr
          72 hlineto
          -47 callsubr
          -297 -12 callgsubr
          272 vlineto
          26 5 5 26 vhcurveto
          75 hlineto
          -47 callsubr
          -219 145 callgsubr
        </CharString>
        <CharString name="uni0915094D0925">
          382 806 37 callsubr
          -144 -451 hlineto
          -85 callgsubr
          125 32 -55 callsubr
          -153 hlineto
          -53 callsubr
          220 54 59 -362 -59 239 -392 vlineto
          -26 -8 -8 -95 callgsubr
          -48 callsubr
          -72 callgsubr
          -87 69 259 -26 callgsubr
          71 -136 hlineto
          -92 callsubr
        </CharString>
        <CharString name="uni0915094D0926">
          281 320 455 151 callgsubr
          273 -108 vlineto
          69 -59 rmoveto
          167 82 59 -732 -59 239 -392 vlineto
          -26 -8 -8 -95 callgsubr
          -48 callsubr
          -72 callgsubr
          -87 69 362 -26 callgsubr
          72 hlineto
          -47 callsubr
          136 callsubr
          24 callsubr
          197 -107 callsubr
          endchar
        </CharString>
        <CharString name="uni0915094D0928">
          430 710 455 rmoveto
          -390 hlineto
          336 callsubr
          422 vlineto
          -157 69 callgsubr
          197 27 callsubr
          301 226 rmoveto
          -874 -59 239 -392 hlineto
          -26 -8 -8 -95 callgsubr
          -48 callsubr
          -72 callgsubr
          -87 69 362 -26 callgsubr
          72 hlineto
          -47 callsubr
          -219 326 callsubr
          239 88 -396 69 -30 callsubr
        </CharString>
        <CharString name="uni0915094D092A">
          287 574 -37 callgsubr
          -254 -108 151 callgsubr
          112 -108 vlineto
          318 167 rmoveto
          -738 -59 239 -392 hlineto
          -26 -8 -8 -95 callgsubr
          -48 callsubr
          -72 callgsubr
          -87 69 362 -26 callgsubr
          78 -239 75 callsubr
        </CharString>
        <CharString name="uni0915094D092A094D0930">
          287 567 50 callsubr
          -247 88 callsubr
          318 167 rmoveto
          -731 -59 239 -392 hlineto
          -26 -8 -8 -95 callgsubr
          -48 callsubr
          -72 callgsubr
          -87 69 362 -26 callgsubr
          71 -209 hlineto
          8 callgsubr
        </CharString>
        <CharString name="uni0915094D092B">
          451 567 62 callgsubr
          482 108 rmoveto
          59 -895 -59 239 -392 vlineto
          -26 -8 -8 -95 callgsubr
          -48 callsubr
          -72 callgsubr
          -87 69 362 -26 callgsubr
          71 -239 hlineto
          -106 callgsubr
          -101 callgsubr
        </CharString>
        <CharString name="uni0915094D092E">
          473 753 432 65 callgsubr
          -365 -75 callgsubr
          -251 59 126 callsubr
          140 283 -131 vlineto
          326 190 rmoveto
          -917 -59 239 -392 hlineto
          -26 -8 -8 -95 callgsubr
          -48 callsubr
          -72 callgsubr
          -87 69 339 -26 callgsubr
          72 72 callgsubr
        </CharString>
        <CharString name="uni0915094D092F">
          377 657 -81 callgsubr
          -337 -189 126 callsubr
          198 165 vlineto
          -63 callsubr
          333 248 rmoveto
          -821 -59 239 -392 hlineto
          -26 -8 -8 -95 callgsubr
          -48 callsubr
          -72 callgsubr
          -87 69 281 -26 callgsubr
          66 -158 hlineto
          -92 callsubr
        </CharString>
        <CharString name="uni0915094D0930">
          103 527 312 callgsubr
          -547 -59 239 -362 vlineto
          -80 callgsubr
          -40 59 callgsubr
          -219 vlineto
          111 callsubr
        </CharString>
        <CharString name="uni0915094D0930.aTrad">
          132 556 312 callgsubr
          -576 -59 269 -300 -8 vlineto
          -77 154 rlineto
          -15 callsubr
          23 -203 68 372 hlineto
          176 callgsubr
          -207 134 callsubr
          229 -99 callsubr
          -63 hlineto
          -53 callsubr
          107 vlineto
          endchar
        </CharString>
        <CharString name="uni0915094D0930094D">
          8 462 312 callgsubr
          -482 -59 239 -362 vlineto
          -80 callgsubr
          -40 59 callgsubr
          136 callsubr
          16 -17 callgsubr
          362 -26 callgsubr
          140 59 -142 241 callsubr
        </CharString>
        <CharString name="uni0915094D0932">
          432 719 455 rmoveto
          39 callgsubr
          -224 hlineto
          336 callsubr
          431 vlineto
          137 59 rmoveto
          -876 -59 239 -392 hlineto
          -26 -8 -8 -95 callgsubr
          -48 callsubr
          -72 callgsubr
          -87 69 362 -26 callgsubr
          72 hlineto
          -47 callsubr
          -297 109 callgsubr
          272 79 callgsubr
          -176 69 176 -107 callsubr
          63 -396 69 563 68 hlineto
          endchar
        </CharString>
        <CharString name="uni0915094D0935">
          287 567 177 callgsubr
          -207 hlineto
          336 callsubr
          279 vlineto
          144 callgsubr
          -731 -59 239 -392 hlineto
          -26 -8 -8 -95 callgsubr
          -48 callsubr
          -72 callgsubr
          -87 69 362 -26 callgsubr
          72 hlineto
          -47 callsubr
          -219 145 callgsubr
        </CharString>
        <CharString name="uni0915094D0935094D092F">
          556 836 -81 callgsubr
          -343 -426 -51 callsubr
          227 -72 callsubr
          -207 176 callsubr
          344 248 callsubr
          -203 hlineto
          -80 callgsubr
          447 485 rmoveto
          -1000 -59 239 -392 hlineto
          -26 -8 -8 -95 callgsubr
          -48 callsubr
          -72 callgsubr
          -87 69 392 -26 callgsubr
          74 hlineto
          -2 -8 -1 -8 -9 vvcurveto
          -244 -100 callsubr
          63 hlineto
          21 19 6 15 10 hvcurveto
          -14 13 20 292 callgsubr
        </CharString>
        <CharString name="uni0915094D0936">
          440 474 623 84 callsubr
          317 callgsubr
          198 60 59 -368 -59 239 -392 vlineto
          -26 -8 -8 -95 callgsubr
          -249 127 callgsubr
          197 vlineto
          53 -26 26 -53 vhcurveto
          160 -1 rmoveto
          311 callgsubr
          75 59 vlineto
          endchar
        </CharString>
        <CharString name="uni0915094D0937">
          138 251 394 36 callsubr
          311 85 rmoveto
          -144 -259 -106 21 callsubr
          288 -306 284 callgsubr
        </CharString>
        <CharString name="uni0915094D0937094D">
          14 149 537 rmoveto
          129 callsubr
          -143 -99 callgsubr
          -39 256 callgsubr
          302 -88 rmoveto
          57 -139 vlineto
          -52 callgsubr
          endchar
        </CharString>
        <CharString name="uni0915094D0937094D092E">
          501 781 432 65 callgsubr
          -365 -75 callgsubr
          -348 21 36 callsubr
          674 85 rmoveto
          -559 -59 233 -131 -99 hlineto
          -50 -26 -23 -46 -3 hvcurveto
          -109 21 callsubr
          291 -119 258 callgsubr
        </CharString>
        <CharString name="uni0915094D0937094D092E094D">
          349 601 198 -75 callgsubr
          -350 21 36 callsubr
          562 26 rmoveto
          59 -445 -59 233 -131 -99 vlineto
          -50 -26 -23 -46 -3 hvcurveto
          -111 21 callsubr
          293 -119 hlineto
          261 callgsubr
          143 59 -143 131 vlineto
          endchar
        </CharString>
        <CharString name="uni0915094D0937094D092E094D092F">
          730 1010 -41 callgsubr
          -330 28 36 callsubr
          903 85 rmoveto
          -788 -59 215 -138 -81 hlineto
          -47 -26 -20 -42 -5 hvcurveto
          -110 21 callsubr
          291 -149 hlineto
          -13 callsubr
        </CharString>
        <CharString name="uni0915094D0937094D092F">
          410 690 -81 callgsubr
          -439 -158 -64 callgsubr
          -39 256 callgsubr
          132 135 callgsubr
          583 85 rmoveto
          -442 -59 94 hlineto
          -63 callsubr
          -189 hlineto
          5 5 3 8 13 vvcurveto
          148 -99 callsubr
          -82 -88 callsubr
          -148 vlineto
          -14 3 -8 6 -5 vhcurveto
          -44 -6 -15 -34 -51 vvcurveto
          -125 206 callgsubr
          18 12 4 11 7 hvcurveto
          -93 69 221 -69 -45 342 callgsubr
          -76 -103 callgsubr
          107 vlineto
          37 -103 callsubr
          291 -160 hlineto
          -92 callsubr
        </CharString>
        <CharString name="uni0915094D0937094D0935">
          315 251 394 36 callsubr
          488 85 rmoveto
          -346 -59 202 -392 hlineto
          -26 -8 -8 -95 callgsubr
          -43 -109 vlineto
          -52 callgsubr
          291 -149 75 callsubr
        </CharString>
        <CharString name="uni0915094D0938">
          452 733 344 289 callsubr
          -163 -188 57 callgsubr
          306 90 rmoveto
          -896 -59 239 -392 hlineto
          -26 -8 -8 -95 callgsubr
          -249 vlineto
          -53 26 -26 53 vhcurveto
          63 hlineto
          14 11 3 6 7 hvcurveto
          -87 69 362 vlineto
          26 8 8 26 vhcurveto
          71 -317 hlineto
          44 callgsubr
        </CharString>
        <CharString name="uni0915094D0938094D091F">
          608 733 -23 callsubr
          260 -78 -79 -88 callsubr
          -163 -31 57 callgsubr
          390 -106 rmoveto
          137 72 59 -1052 -59 239 -392 vlineto
          -26 -8 -8 -95 callgsubr
          34 callsubr
          86 -105 callsubr
          132 -69 -121 -86 callgsubr
          195 271 102 callsubr
        </CharString>
        <CharString name="uni0915094D0938094D0921">
          620 733 -23 callsubr
          254 -78 -73 -88 callsubr
          -163 -31 57 callgsubr
          384 -106 310 callsubr
          -1064 -59 239 -392 vlineto
          -26 -8 -8 -95 callgsubr
          34 callsubr
          86 -105 callsubr
          132 -69 -121 -86 callgsubr
          195 274 vlineto
          -34 9 25 -16 42 hhcurveto
          -58 callsubr
          endchar
        </CharString>
        <CharString name="uni0915094D0938094D0924">
          667 947 485 rmoveto
          -125 -88 callsubr
          -62 -116 vlineto
          -78 callsubr
          316 hlineto
          -377 -188 57 callgsubr
          521 90 rmoveto
          -1111 -59 239 -392 hlineto
          -26 -8 -8 -95 callgsubr
          34 callsubr
          86 -105 callsubr
          132 -69 -121 -86 callgsubr
          195 281 -206 -46 callgsubr
        </CharString>
        <CharString name="uni0915094D0938094D092A094D0930">
          638 918 50 callsubr
          -291 -219 rmoveto
          -78 callsubr
          113 -219 hlineto
          -174 31 57 callgsubr
          492 90 rmoveto
          -1082 -59 239 -392 hlineto
          -26 -8 -8 -95 callgsubr
          34 callsubr
          86 -105 callsubr
          132 -69 -121 -86 callgsubr
          195 282 -98 103 callgsubr
        </CharString>
        <CharString name="uni0915094D0938094D092A094D0932">
          955 1242 485 rmoveto
          113 callgsubr
          395 431 vlineto
          -615 -219 rmoveto
          -78 callsubr
          111 -219 hlineto
          -172 31 57 callgsubr
          809 90 rmoveto
          -1399 -59 239 -392 hlineto
          -26 -8 -8 -95 callgsubr
          34 callsubr
          86 -105 callsubr
          132 -69 -121 -86 callgsubr
          195 280 338 callgsubr
          -72 callgsubr
          -8 -56 callgsubr
          -426 69 563 68 hlineto
          endchar
        </CharString>
        <CharString name="uni0916">
          180 604 37 callsubr
          -624 -59 172 hlineto
          26 5 -5 -26 hvcurveto
          -196 vlineto
          -26 -5 -5 -26 vhcurveto
          -35 166 -69 -392 hlineto
          77 callsubr
        </CharString>
        <CharString name="uni0916093C">
          180 126 -148 -31 callgsubr
          478 684 rmoveto
          -624 -59 172 hlineto
          26 5 -5 -26 hvcurveto
          -196 vlineto
          -26 -5 -5 -26 vhcurveto
          -35 166 -69 -392 hlineto
          77 callsubr
        </CharString>
        <CharString name="uni0916093C094D">
          5 126 -148 -31 callgsubr
          235 443 rmoveto
          325 callsubr
          -194 -100 callsubr
          123 59 -106 -103 callgsubr
          -381 413 rmoveto
          -59 172 vlineto
          19 callsubr
          254 59 hlineto
          endchar
        </CharString>
        <CharString name="uni0916093C094D0924">
          388 126 -148 -31 callgsubr
          686 684 rmoveto
          -832 -59 172 hlineto
          19 callsubr
          424 -78 -125 -88 callsubr
          -189 vlineto
          -54 callgsubr
          -55 -46 callgsubr
        </CharString>
        <CharString name="uni0916093C094D092E">
          501 126 -148 -31 callgsubr
          673 494 rmoveto
          -88 131 88 hlineto
          -157 -365 -75 callgsubr
          301 249 rmoveto
          -963 -59 172 hlineto
          -73 callgsubr
          398 169 callgsubr
          -147 vlineto
          -6 callgsubr
          197 -35 callgsubr
          -219 122 callsubr
          23 20 7 19 8 hvcurveto
          -17 13 22 -9 30 353 callsubr
          88 -373 69 -30 callsubr
        </CharString>
        <CharString name="uni0916093C094D092F">
          453 126 -148 -31 callgsubr
          607 233 5 callgsubr
          -897 -59 172 hlineto
          -73 callgsubr
          285 -40 callgsubr
          -168 hlineto
          -6 callgsubr
          197 -35 callgsubr
          -219 122 callsubr
          17 15 3 10 10 hvcurveto
          -29 10 25 -14 39 hhcurveto
          -94 callsubr
        </CharString>
        <CharString name="uni0916093C094D0930">
          180 390 -130 -31 callgsubr
          214 666 42 callgsubr
        </CharString>
        <CharString name="uni0916093C094D0930094D">
          19 155 -133 -31 callgsubr
          -38 293 52 callsubr
        </CharString>
        <CharString name="uni0916093C094D0935">
          342 126 -148 -31 callgsubr
          640 684 rmoveto
          -786 -59 172 hlineto
          -73 callgsubr
          394 -392 hlineto
          -26 -8 -8 -95 callgsubr
          -189 vlineto
          65 callsubr
          -72 callgsubr
          -87 69 563 59 vlineto
          endchar
        </CharString>
        <CharString name="uni0916093C094D0936">
          511 126 -148 -31 callgsubr
          -9 308 rmoveto
          56 hlineto
          -32 callgsubr
          180 59 -444 197 callgsubr
          428 530 133 callgsubr
          -157 hlineto
          -6 callgsubr
          172 169 callsubr
          59 -49 194 callsubr
          -55 -16 callgsubr
        </CharString>
        <CharString name="uni0916093C094D0938">
          523 126 -148 -31 callgsubr
          678 406 289 callsubr
          355 callsubr
          -967 -59 172 hlineto
          -73 callgsubr
          366 hlineto
          -71 callsubr
          102 -69 -229 hlineto
          -6 callgsubr
          172 169 callsubr
          59 -49 194 callsubr
          -55 -5 callgsubr
        </CharString>
        <CharString name="uni0916094D">
          5 361 381 rmoveto
          325 callsubr
          -194 -100 callsubr
          123 59 -106 -103 callgsubr
          -381 413 rmoveto
          -59 172 vlineto
          19 callsubr
          254 59 hlineto
          endchar
        </CharString>
        <CharString name="uni0916094D0916">
          596 1020 37 callsubr
          -1040 -59 172 hlineto
          -73 callgsubr
          324 hlineto
          -33 callsubr
          -69 -254 hlineto
          -54 callgsubr
          -55 vlineto
          77 callsubr
        </CharString>
        <CharString name="uni0916094D0924">
          388 812 37 callsubr
          -832 -59 172 hlineto
          19 callsubr
          424 -78 -125 -88 callsubr
          -189 vlineto
          -54 callgsubr
          -55 -46 callgsubr
        </CharString>
        <CharString name="uni0916094D0928">
          501 624 2 callgsubr
          -945 -59 172 hlineto
          -73 callgsubr
          537 151 callsubr
          -189 vlineto
          65 callsubr
          17 callsubr
        </CharString>
        <CharString name="uni0916094D092E">
          501 799 432 rmoveto
          -88 131 88 hlineto
          -157 -365 -75 callgsubr
          301 249 rmoveto
          -963 -59 172 hlineto
          -73 callgsubr
          398 169 callgsubr
          -147 vlineto
          -6 callgsubr
          197 -35 callgsubr
          -219 122 callsubr
          23 20 7 19 8 hvcurveto
          -17 13 22 -9 30 353 callsubr
          88 -373 69 -30 callsubr
        </CharString>
        <CharString name="uni0916094D092F">
          453 733 3 callgsubr
          -897 -59 172 hlineto
          -73 callgsubr
          285 -40 callgsubr
          -168 hlineto
          -6 callgsubr
          197 -35 callgsubr
          -219 122 callsubr
          17 15 3 10 10 hvcurveto
          -29 10 25 -14 39 hhcurveto
          -94 callsubr
        </CharString>
        <CharString name="uni0916094D0930">
          180 604 622 42 callgsubr
        </CharString>
        <CharString name="uni0916094D0930094D">
          19 117 246 52 callsubr
        </CharString>
        <CharString name="uni0916094D0935">
          342 766 37 callsubr
          -786 -59 172 hlineto
          -73 callgsubr
          394 -392 hlineto
          -26 -8 -8 -95 callgsubr
          -189 vlineto
          65 callsubr
          -72 callgsubr
          -87 69 563 59 vlineto
          endchar
        </CharString>
        <CharString name="uni0916094D0936">
          511 117 246 rmoveto
          56 hlineto
          -32 callgsubr
          180 59 -444 197 callgsubr
          428 530 133 callgsubr
          -157 hlineto
          -6 callgsubr
          172 169 callsubr
          59 -49 194 callsubr
          -55 -16 callgsubr
        </CharString>
        <CharString name="uni0917">
          108 135 137 -62 callsubr
          348 485 rmoveto
          -552 -59 -71 callgsubr
          283 callgsubr
        </CharString>
        <CharString name="uni0917093C">
          108 119 -87 -31 callgsubr
          16 138 -62 callsubr
          348 485 rmoveto
          -552 -59 -71 callgsubr
          283 callgsubr
        </CharString>
        <CharString name="uni0917093C094D">
          -70 120 -87 -31 callgsubr
          15 138 -62 callsubr
          170 485 rmoveto
          -374 -59 -71 callgsubr
          70 vlineto
          endchar
        </CharString>
        <CharString name="uni0917093C094D0930">
          108 290 -130 -31 callgsubr
          -155 251 94 callsubr
          348 415 rmoveto
          -552 -59 235 -78 -101 hlineto
          279 callsubr
          104 -324 -22 callgsubr
        </CharString>
        <CharString name="uni0917093C094D0930094D">
          -59 316 -104 -31 callgsubr
          -105 -32 104 callsubr
        </CharString>
        <CharString name="uni0917094D">
          -70 135 137 -62 callsubr
          170 485 rmoveto
          -374 -59 -71 callgsubr
          70 vlineto
          endchar
        </CharString>
        <CharString name="uni0917094D0917">
          438 465 137 -62 callsubr
          -379 268 callsubr
          678 485 rmoveto
          -882 -59 -71 callgsubr
          261 -137 -101 vlineto
          -104 callgsubr
          -190 -34 callgsubr
          406 283 callgsubr
        </CharString>
        <CharString name="uni0917094D0918">
          350 630 171 rmoveto
          -80 callgsubr
          -110 105 callgsubr
          4 27 1 vhcurveto
          143 hlineto
          -495 -426 -62 callsubr
          590 485 rmoveto
          -794 -59 -71 callgsubr
          116 vlineto
          256 callsubr
          -136 -86 callsubr
          -144 -100 callsubr
          133 -90 callsubr
        </CharString>
        <CharString name="uni0917094D091C">
          421 135 137 -62 callsubr
          661 485 rmoveto
          -865 -59 -71 callgsubr
          417 -78 -156 67 callgsubr
          87 -11 callsubr
        </CharString>
        <CharString name="uni0917094D0923">
          421 545 168 rmoveto
          -59 callsubr
          395 96 vlineto
          -410 -426 -62 callsubr
          661 485 rmoveto
          -865 -59 -71 callgsubr
          96 -406 -54 callsubr
          406 87 326 callgsubr
        </CharString>
        <CharString name="uni0917094D0926">
          275 135 137 -62 callsubr
          433 289 rmoveto
          137 75 59 -712 -59 235 -137 -101 vlineto
          -104 callgsubr
          -190 -34 callgsubr
          406 264 -78 -89 vlineto
          -104 callgsubr
          -249 -2 callgsubr
        </CharString>
        <CharString name="uni0917094D0927">
          348 135 137 -62 callsubr
          -204 426 rmoveto
          -71 callgsubr
          64 59 -368 vlineto
          792 hmoveto
          -144 -451 11 callgsubr
          137 -90 callsubr
        </CharString>
        <CharString name="uni0917094D0927094D092F">
          617 135 137 -62 callsubr
          -204 426 rmoveto
          -71 callgsubr
          64 59 -368 vlineto
          917 -451 5 callgsubr
          -413 -59 65 -40 callgsubr
          -203 11 callgsubr
          148 hlineto
          21 13 5 16 5 hvcurveto
          -14 13 21 -7 27 hhcurveto
          -94 callsubr
        </CharString>
        <CharString name="uni0917094D0927094D0935">
          522 135 137 -62 callsubr
          -204 426 rmoveto
          -71 callgsubr
          64 59 -368 vlineto
          966 hmoveto
          -318 -59 174 -392 hlineto
          -26 -8 -8 -95 callgsubr
          -235 vlineto
          -74 callgsubr
          148 hlineto
          21 13 5 16 5 hvcurveto
          -14 13 21 -7 27 hhcurveto
          63 -90 callsubr
        </CharString>
        <CharString name="uni0917094D0928">
          412 535 168 -94 callgsubr
          -400 -289 -62 callsubr
          652 485 rmoveto
          -856 -59 -71 callgsubr
          408 -78 -238 vlineto
          138 callsubr
        </CharString>
        <CharString name="uni0917094D0928094D092F">
          684 964 -20 callsubr
          -400 -229 -62 callsubr
          924 485 rmoveto
          -1128 -59 -71 callgsubr
          476 189 callgsubr
          -321 -88 callsubr
          -189 vlineto
          -13 callsubr
        </CharString>
        <CharString name="uni0917094D092C">
          305 483 137 -75 callsubr
          -424 268 callsubr
          553 485 rmoveto
          -757 -59 -71 callgsubr
          309 -238 vlineto
          174 callgsubr
        </CharString>
        <CharString name="uni0917094D092D">
          455 135 137 -62 callsubr
          -204 426 rmoveto
          -71 callgsubr
          64 59 -368 vlineto
          573 -454 -51 callgsubr
          326 280 rmoveto
          -144 -221 -113 142 hlineto
          -47 callgsubr
          113 -342 69 -30 callsubr
        </CharString>
        <CharString name="uni0917094D092D094D092F">
          724 135 137 -62 callsubr
          -204 426 rmoveto
          -71 callgsubr
          64 59 -368 vlineto
          999 -451 15 callgsubr
        </CharString>
        <CharString name="uni0917094D092E">
          455 735 432 65 callgsubr
          -365 -75 callgsubr
          -418 -236 -62 callsubr
          695 485 rmoveto
          -899 -59 -71 callgsubr
          269 -131 -99 vlineto
          -53 -26 -26 -53 hvcurveto
          106 callsubr
        </CharString>
        <CharString name="uni0917094D092F">
          364 644 -81 callgsubr
          -509 -426 -62 callsubr
          604 485 rmoveto
          -808 -59 -71 callgsubr
          156 248 callsubr
          -217 hlineto
          -92 callsubr
        </CharString>
        <CharString name="uni0917094D0930">
          108 135 207 94 callsubr
          348 415 rmoveto
          -552 -59 235 -78 -101 hlineto
          279 callsubr
          104 -324 -22 callgsubr
        </CharString>
        <CharString name="uni0917094D0930094D">
          -59 211 -50 104 callsubr
        </CharString>
        <CharString name="uni0917094D0930094D092F">
          356 636 -81 callgsubr
          -501 -356 94 callsubr
          596 415 rmoveto
          -800 -59 235 -78 -101 hlineto
          279 callsubr
          148 248 callsubr
          -158 hlineto
          -241 -266 rlineto
          85 hlineto
          160 176 rlineto
          -32 9 24 -16 42 hhcurveto
          -94 callsubr
        </CharString>
        <CharString name="uni0917094D0932">
          414 135 137 -62 callsubr
          654 485 rmoveto
          -858 -59 -71 callgsubr
          417 -78 -80 vlineto
          -97 callsubr
          -206 69 206 vlineto
          26 5 5 26 vhcurveto
          63 -426 69 563 68 hlineto
          endchar
        </CharString>
        <CharString name="uni0917094D0935">
          269 135 137 -62 callsubr
          509 485 rmoveto
          -713 -59 -71 callgsubr
          265 -392 vlineto
          -26 -8 -8 -95 callgsubr
          -249 145 callgsubr
        </CharString>
        <CharString name="uni0917094D0938">
          434 715 344 289 callsubr
          -580 -426 -62 callsubr
          674 485 rmoveto
          -878 -59 -71 callgsubr
          237 vlineto
          -100 callgsubr
          271 -285 68 6 callsubr
          endchar
        </CharString>
        <CharString name="uni0918">
          12 292 171 rmoveto
          -80 callgsubr
          -110 105 callgsubr
          4 27 1 vhcurveto
          143 hlineto
          144 callgsubr
          -456 -59 82 hlineto
          256 callsubr
          -136 -86 callsubr
          -144 -100 callsubr
          133 -90 callsubr
        </CharString>
        <CharString name="uni0918093C094D0930">
          12 240 -130 -31 callgsubr
          52 245 56 callgsubr
        </CharString>
        <CharString name="uni0918093C094D0930094D">
          -104 327 167 rmoveto
          -179 -103 callgsubr
          108 -57 callsubr
          105 vlineto
          26 5 4 27 1 vhcurveto
          178 59 -347 -59 82 hlineto
          256 callsubr
          -119 -86 callsubr
          -131 -100 callsubr
          116 115 callgsubr
          -42 -139 165 callgsubr
        </CharString>
        <CharString name="uni0918094D">
          -167 324 312 callgsubr
          -344 -59 76 vlineto
          20 callsubr
          -141 -86 callsubr
          -144 -100 callsubr
          197 59 -176 105 callgsubr
          5 26 vhcurveto
          endchar
        </CharString>
        <CharString name="uni0918094D0928">
          323 593 485 rmoveto
          205 callsubr
          -236 vlineto
          -24 -8 -9 -26 vhcurveto
          -94 105 callgsubr
          5 26 vhcurveto
          445 hlineto
          -157 -395 -94 callgsubr
          301 196 rmoveto
          -757 -59 76 254 callgsubr
          -141 -86 callsubr
          -144 -100 callsubr
          119 224 callgsubr
          17 callsubr
        </CharString>
        <CharString name="uni0918094D092E">
          355 636 28 callsubr
          -306 -236 230 callsubr
          306 169 callgsubr
          -183 vlineto
          -24 -8 -9 -26 vhcurveto
          537 485 rmoveto
          -799 -59 76 254 callgsubr
          -141 -86 callsubr
          -144 -100 callsubr
          119 224 callgsubr
          225 callsubr
          113 -373 69 563 74 vlineto
          endchar
        </CharString>
        <CharString name="uni0918094D092F">
          245 545 -81 callgsubr
          -397 -426 230 callsubr
          193 -40 callgsubr
          -204 hlineto
          -24 -8 -9 -26 vhcurveto
          427 485 rmoveto
          -689 -59 76 254 callgsubr
          -141 -86 callsubr
          -144 -100 callsubr
          119 224 callgsubr
          345 callgsubr
          563 55 vlineto
          endchar
        </CharString>
        <CharString name="uni0918094D0930">
          12 292 201 56 callgsubr
        </CharString>
        <CharString name="uni0918094D0930094D">
          -104 327 312 callgsubr
          -347 -59 82 vlineto
          256 callsubr
          -119 -86 callsubr
          -131 -100 callsubr
          116 145 callsubr
          -179 vlineto
          -107 callgsubr
          108 -57 callsubr
          105 vlineto
          26 5 4 27 1 vhcurveto
          endchar
        </CharString>
        <CharString name="uni0919">
          -53 273 308 -31 callgsubr
          -293 228 rmoveto
          -59 232 -78 -73 vlineto
          -53 -26 -26 -53 hvcurveto
          -55 callgsubr
          121 137 90 59 hlineto
          endchar
        </CharString>
        <CharString name="uni0919093C094D0930">
          -53 136 -228 -31 callgsubr
          137 450 -31 callgsubr
          -293 228 rmoveto
          -59 232 -78 -73 vlineto
          -10 callgsubr
          -47 21 -26 42 -5 39 callsubr
          -74 142 rlineto
          38 6 19 26 137 callgsubr
        </CharString>
        <CharString name="uni0919093C094D0930094D">
          -53 94 -245 -31 callgsubr
          87 hmoveto
          30 callsubr
          16 467 -31 callgsubr
          -293 228 rmoveto
          -59 232 -78 -73 vlineto
          -10 callgsubr
          -47 21 -26 42 -5 39 callsubr
          -74 142 rlineto
          38 6 19 26 137 callgsubr
        </CharString>
        <CharString name="uni0919094D">
          -53 131 -61 rmoveto
          30 callsubr
          66 369 -31 callgsubr
          -293 228 rmoveto
          -59 232 -78 -73 vlineto
          -53 -26 -26 -53 hvcurveto
          -55 callgsubr
          121 137 90 59 hlineto
          endchar
        </CharString>
        <CharString name="uni0919094D0930">
          -53 273 308 -31 callgsubr
          -293 228 rmoveto
          -59 232 -78 -73 vlineto
          -10 callgsubr
          -47 21 -26 42 -5 39 callsubr
          -74 142 rlineto
          38 6 19 26 137 callgsubr
        </CharString>
        <CharString name="uni091A">
          -18 406 622 123 callgsubr
        </CharString>
        <CharString name="uni091A093C094D0930">
          -13 200 -130 -31 callgsubr
          206 666 112 callgsubr
        </CharString>
        <CharString name="uni091A093C094D0930094D">
          -158 266 37 callsubr
          -286 -59 286 hlineto
          -396 vmoveto
          -98 -103 callgsubr
          197 vlineto
          193 callgsubr
          -69 -160 165 callgsubr
        </CharString>
        <CharString name="uni091A094D">
          -197 137 305 callgsubr
          41 55 callgsubr
          149 59 -128 -103 callgsubr
          -157 454 rmoveto
          -59 316 59 vlineto
          endchar
        </CharString>
        <CharString name="uni091A094D091A">
          176 600 37 callsubr
          -620 -59 476 -392 hlineto
          -26 -8 -8 175 callsubr
          21 5 10 28 vhcurveto
          39 59 -174 -59 41 254 callgsubr
          -230 vlineto
          -24 -8 -9 175 callsubr
          21 5 10 28 vhcurveto
          9 59 -174 80 callsubr
          160 callgsubr
          85 224 callgsubr
          83 -90 callsubr
        </CharString>
        <CharString name="uni091A094D091B">
          304 525 485 -62 callgsubr
          -748 -59 290 vlineto
          20 callsubr
          -182 -86 callsubr
          -90 38 callgsubr
          17 14 2 6 10 hvcurveto
          -7 -100 callsubr
          240 104 callgsubr
        </CharString>
        <CharString name="uni091A094D091B094D0935">
          304 525 9 callgsubr
          -99 -662 rmoveto
          300 callsubr
          41 vlineto
          20 3 8 13 2 vhcurveto
          110 -68 hlineto
          -24 -7 -7 -23 vhcurveto
          234 662 rmoveto
          59 -748 -59 290 vlineto
          20 callsubr
          -182 -86 callsubr
          -90 38 callgsubr
          17 14 2 6 10 hvcurveto
          -7 163 callgsubr
        </CharString>
        <CharString name="uni091A094D0928">
          299 422 2 callgsubr
          -743 -59 599 151 callsubr
          -236 38 callgsubr
          30 18 7 15 10 hvcurveto
          -15 13 21 -7 28 hhcurveto
          17 callsubr
        </CharString>
        <CharString name="uni091A094D092E">
          342 622 28 callsubr
          326 249 rmoveto
          -786 -59 460 169 callgsubr
          -183 38 callgsubr
          30 18 7 15 10 hvcurveto
          -15 13 21 -7 28 hhcurveto
          211 callsubr
        </CharString>
        <CharString name="uni091A094D092F">
          251 531 3 callgsubr
          -695 -59 347 -40 callgsubr
          -204 hlineto
          43 callsubr
          30 18 7 15 10 hvcurveto
          -15 13 21 292 callgsubr
        </CharString>
        <CharString name="uni091A094D0930">
          -13 406 622 112 callgsubr
        </CharString>
        <CharString name="uni091A094D0930094D">
          -158 137 395 rmoveto
          193 callgsubr
          42 -98 vlineto
          -107 callgsubr
          -157 424 rmoveto
          -59 286 59 vlineto
          endchar
        </CharString>
        <CharString name="uni091B">
          97 318 485 -69 callsubr
          240 104 callgsubr
        </CharString>
</ttFont>
